G75*
G70*
%OFA0B0*%
%FSLAX24Y24*%
%IPPOS*%
%LPD*%
%AMOC8*
5,1,8,0,0,1.08239X$1,22.5*
%
%ADD10C,0.0000*%
D10*
X018011Y001676D02*
X018011Y007581D01*
X018013Y007658D01*
X018019Y007735D01*
X018028Y007812D01*
X018041Y007888D01*
X018058Y007964D01*
X018079Y008038D01*
X018103Y008112D01*
X018131Y008184D01*
X018162Y008254D01*
X018197Y008323D01*
X018235Y008391D01*
X018276Y008456D01*
X018321Y008519D01*
X018369Y008580D01*
X018419Y008639D01*
X018472Y008695D01*
X018528Y008748D01*
X018587Y008798D01*
X018648Y008846D01*
X018711Y008891D01*
X018776Y008932D01*
X018844Y008970D01*
X018913Y009005D01*
X018983Y009036D01*
X019055Y009064D01*
X019129Y009088D01*
X019203Y009109D01*
X019279Y009126D01*
X019355Y009139D01*
X019432Y009148D01*
X019509Y009154D01*
X019586Y009156D01*
X044782Y009156D01*
X044859Y009154D01*
X044936Y009148D01*
X045013Y009139D01*
X045089Y009126D01*
X045165Y009109D01*
X045239Y009088D01*
X045313Y009064D01*
X045385Y009036D01*
X045455Y009005D01*
X045524Y008970D01*
X045592Y008932D01*
X045657Y008891D01*
X045720Y008846D01*
X045781Y008798D01*
X045840Y008748D01*
X045896Y008695D01*
X045949Y008639D01*
X045999Y008580D01*
X046047Y008519D01*
X046092Y008456D01*
X046133Y008391D01*
X046171Y008323D01*
X046206Y008254D01*
X046237Y008184D01*
X046265Y008112D01*
X046289Y008038D01*
X046310Y007964D01*
X046327Y007888D01*
X046340Y007812D01*
X046349Y007735D01*
X046355Y007658D01*
X046357Y007581D01*
X046357Y001676D01*
X046355Y001599D01*
X046349Y001522D01*
X046340Y001445D01*
X046327Y001369D01*
X046310Y001293D01*
X046289Y001219D01*
X046265Y001145D01*
X046237Y001073D01*
X046206Y001003D01*
X046171Y000934D01*
X046133Y000866D01*
X046092Y000801D01*
X046047Y000738D01*
X045999Y000677D01*
X045949Y000618D01*
X045896Y000562D01*
X045840Y000509D01*
X045781Y000459D01*
X045720Y000411D01*
X045657Y000366D01*
X045592Y000325D01*
X045524Y000287D01*
X045455Y000252D01*
X045385Y000221D01*
X045313Y000193D01*
X045239Y000169D01*
X045165Y000148D01*
X045089Y000131D01*
X045013Y000118D01*
X044936Y000109D01*
X044859Y000103D01*
X044782Y000101D01*
X019586Y000101D01*
X019509Y000103D01*
X019432Y000109D01*
X019355Y000118D01*
X019279Y000131D01*
X019203Y000148D01*
X019129Y000169D01*
X019055Y000193D01*
X018983Y000221D01*
X018913Y000252D01*
X018844Y000287D01*
X018776Y000325D01*
X018711Y000366D01*
X018648Y000411D01*
X018587Y000459D01*
X018528Y000509D01*
X018472Y000562D01*
X018419Y000618D01*
X018369Y000677D01*
X018321Y000738D01*
X018276Y000801D01*
X018235Y000866D01*
X018197Y000934D01*
X018162Y001003D01*
X018131Y001073D01*
X018103Y001145D01*
X018079Y001219D01*
X018058Y001293D01*
X018041Y001369D01*
X018028Y001445D01*
X018019Y001522D01*
X018013Y001599D01*
X018011Y001676D01*
X028837Y007581D02*
X028839Y007629D01*
X028845Y007677D01*
X028855Y007724D01*
X028868Y007770D01*
X028886Y007815D01*
X028906Y007859D01*
X028931Y007901D01*
X028959Y007940D01*
X028989Y007977D01*
X029023Y008011D01*
X029060Y008043D01*
X029098Y008072D01*
X029139Y008097D01*
X029182Y008119D01*
X029227Y008137D01*
X029273Y008151D01*
X029320Y008162D01*
X029368Y008169D01*
X029416Y008172D01*
X029464Y008171D01*
X029512Y008166D01*
X029560Y008157D01*
X029606Y008145D01*
X029651Y008128D01*
X029695Y008108D01*
X029737Y008085D01*
X029777Y008058D01*
X029815Y008028D01*
X029850Y007995D01*
X029882Y007959D01*
X029912Y007921D01*
X029938Y007880D01*
X029960Y007837D01*
X029980Y007793D01*
X029995Y007748D01*
X030007Y007701D01*
X030015Y007653D01*
X030019Y007605D01*
X030019Y007557D01*
X030015Y007509D01*
X030007Y007461D01*
X029995Y007414D01*
X029980Y007369D01*
X029960Y007325D01*
X029938Y007282D01*
X029912Y007241D01*
X029882Y007203D01*
X029850Y007167D01*
X029815Y007134D01*
X029777Y007104D01*
X029737Y007077D01*
X029695Y007054D01*
X029651Y007034D01*
X029606Y007017D01*
X029560Y007005D01*
X029512Y006996D01*
X029464Y006991D01*
X029416Y006990D01*
X029368Y006993D01*
X029320Y007000D01*
X029273Y007011D01*
X029227Y007025D01*
X029182Y007043D01*
X029139Y007065D01*
X029098Y007090D01*
X029060Y007119D01*
X029023Y007151D01*
X028989Y007185D01*
X028959Y007222D01*
X028931Y007261D01*
X028906Y007303D01*
X028886Y007347D01*
X028868Y007392D01*
X028855Y007438D01*
X028845Y007485D01*
X028839Y007533D01*
X028837Y007581D01*
X033561Y007581D02*
X033563Y007629D01*
X033569Y007677D01*
X033579Y007724D01*
X033592Y007770D01*
X033610Y007815D01*
X033630Y007859D01*
X033655Y007901D01*
X033683Y007940D01*
X033713Y007977D01*
X033747Y008011D01*
X033784Y008043D01*
X033822Y008072D01*
X033863Y008097D01*
X033906Y008119D01*
X033951Y008137D01*
X033997Y008151D01*
X034044Y008162D01*
X034092Y008169D01*
X034140Y008172D01*
X034188Y008171D01*
X034236Y008166D01*
X034284Y008157D01*
X034330Y008145D01*
X034375Y008128D01*
X034419Y008108D01*
X034461Y008085D01*
X034501Y008058D01*
X034539Y008028D01*
X034574Y007995D01*
X034606Y007959D01*
X034636Y007921D01*
X034662Y007880D01*
X034684Y007837D01*
X034704Y007793D01*
X034719Y007748D01*
X034731Y007701D01*
X034739Y007653D01*
X034743Y007605D01*
X034743Y007557D01*
X034739Y007509D01*
X034731Y007461D01*
X034719Y007414D01*
X034704Y007369D01*
X034684Y007325D01*
X034662Y007282D01*
X034636Y007241D01*
X034606Y007203D01*
X034574Y007167D01*
X034539Y007134D01*
X034501Y007104D01*
X034461Y007077D01*
X034419Y007054D01*
X034375Y007034D01*
X034330Y007017D01*
X034284Y007005D01*
X034236Y006996D01*
X034188Y006991D01*
X034140Y006990D01*
X034092Y006993D01*
X034044Y007000D01*
X033997Y007011D01*
X033951Y007025D01*
X033906Y007043D01*
X033863Y007065D01*
X033822Y007090D01*
X033784Y007119D01*
X033747Y007151D01*
X033713Y007185D01*
X033683Y007222D01*
X033655Y007261D01*
X033630Y007303D01*
X033610Y007347D01*
X033592Y007392D01*
X033579Y007438D01*
X033569Y007485D01*
X033563Y007533D01*
X033561Y007581D01*
M02*
