G75*
G70*
%OFA0B0*%
%FSLAX24Y24*%
%IPPOS*%
%LPD*%
%AMOC8*
5,1,8,0,0,1.08239X$1,22.5*
%
%ADD10C,0.1261*%
%ADD11C,0.0552*%
%ADD12C,0.0671*%
D10*
X029428Y007581D03*
X034152Y007581D03*
D11*
X020432Y002857D03*
X020688Y002286D03*
X021298Y002128D03*
X021810Y002502D03*
X021160Y002857D03*
X021810Y003211D03*
X021298Y003585D03*
X020688Y003428D03*
X027519Y002857D03*
X028247Y002857D03*
X028897Y003211D03*
X028385Y003585D03*
X027774Y003428D03*
X028897Y002502D03*
X028385Y002128D03*
X027774Y002286D03*
X028247Y004628D03*
X029034Y004628D03*
X029822Y004628D03*
X030609Y004628D03*
X031397Y004628D03*
X032184Y004628D03*
X032971Y004628D03*
X033759Y004628D03*
X034546Y004628D03*
X035334Y004628D03*
X035334Y005613D03*
X034546Y005613D03*
X033759Y005613D03*
X032971Y005613D03*
X032184Y005613D03*
X031397Y005613D03*
X030609Y005613D03*
X029822Y005613D03*
X029034Y005613D03*
X028247Y005613D03*
X034605Y002857D03*
X034861Y002286D03*
X035471Y002128D03*
X035983Y002502D03*
X035334Y002857D03*
X035983Y003211D03*
X035471Y003585D03*
X034861Y003428D03*
X041692Y002857D03*
X041948Y002286D03*
X042558Y002128D03*
X043070Y002502D03*
X042420Y002857D03*
X043070Y003211D03*
X042558Y003585D03*
X041948Y003428D03*
D12*
X038483Y002857D03*
X031397Y002857D03*
X024310Y002857D03*
X045570Y002857D03*
M02*
