G75*
G70*
%OFA0B0*%
%FSLAX24Y24*%
%IPPOS*%
%LPD*%
%AMOC8*
5,1,8,0,0,1.08239X$1,22.5*
%
%ADD10C,0.0030*%
%ADD11C,0.0010*%
%ADD12C,0.0060*%
%ADD13C,0.0040*%
%ADD14C,0.0020*%
%ADD15C,0.0050*%
D10*
X031018Y003652D02*
X031265Y004023D01*
X031386Y003838D02*
X031633Y003838D01*
X031754Y003838D02*
X031878Y003776D01*
X031940Y003776D01*
X032001Y003838D01*
X032001Y003961D01*
X031940Y004023D01*
X031816Y004023D01*
X031754Y003961D01*
X031754Y003838D02*
X031754Y003652D01*
X032001Y003652D01*
X032123Y003714D02*
X032184Y003652D01*
X032308Y003652D01*
X032370Y003714D01*
X032123Y003961D01*
X032184Y004023D01*
X032308Y004023D01*
X032370Y003961D01*
X032370Y003714D01*
X032491Y003714D02*
X032491Y003776D01*
X032553Y003838D01*
X032738Y003838D01*
X032738Y003961D02*
X032738Y003714D01*
X032676Y003652D01*
X032553Y003652D01*
X032491Y003714D01*
X032491Y003961D02*
X032553Y004023D01*
X032676Y004023D01*
X032738Y003961D01*
X032123Y003961D02*
X032123Y003714D01*
X031265Y003652D02*
X031018Y004023D01*
D11*
X018953Y006036D02*
X018928Y006011D01*
X018828Y006011D01*
X018803Y006036D01*
X018803Y006086D01*
X018828Y006111D01*
X018878Y006111D01*
X018878Y006061D01*
X018928Y006111D02*
X018953Y006086D01*
X018953Y006036D01*
X018953Y006159D02*
X018803Y006259D01*
X018953Y006259D01*
X018953Y006306D02*
X018953Y006381D01*
X018928Y006406D01*
X018828Y006406D01*
X018803Y006381D01*
X018803Y006306D01*
X018953Y006306D01*
X018953Y006159D02*
X018803Y006159D01*
D12*
X019062Y001179D02*
X018828Y000945D01*
X018828Y001646D01*
X019295Y001646D02*
X019295Y000945D01*
X019062Y001179D01*
X019528Y001179D02*
X019645Y001179D01*
X019645Y001646D01*
X019761Y001646D02*
X019528Y001646D01*
X019994Y001529D02*
X019994Y001295D01*
X020111Y001179D01*
X020461Y001179D01*
X020461Y000945D02*
X020461Y001646D01*
X020111Y001646D01*
X019994Y001529D01*
X019645Y000945D02*
X019645Y000828D01*
X021394Y000945D02*
X021627Y001179D01*
X021861Y000945D01*
X021861Y001646D01*
X022094Y001529D02*
X022210Y001646D01*
X022444Y001646D01*
X022561Y001529D01*
X022793Y001646D02*
X022793Y000945D01*
X023260Y001646D01*
X023260Y000945D01*
X022561Y001062D02*
X022444Y000945D01*
X022210Y000945D01*
X022094Y001062D01*
X022094Y001529D01*
X021394Y001646D02*
X021394Y000945D01*
X024193Y000945D02*
X024543Y000945D01*
X024660Y001062D01*
X024660Y001179D01*
X024543Y001295D01*
X024193Y001295D01*
X024193Y000945D02*
X024193Y001646D01*
X024543Y001646D01*
X024660Y001529D01*
X024660Y001412D01*
X024543Y001295D01*
X024893Y001179D02*
X024893Y001646D01*
X024893Y001412D02*
X025126Y001179D01*
X025243Y001179D01*
X025476Y001295D02*
X025593Y001179D01*
X025826Y001179D01*
X025943Y001295D01*
X025943Y001412D01*
X025476Y001412D01*
X025476Y001529D02*
X025476Y001295D01*
X025476Y001529D02*
X025593Y001646D01*
X025826Y001646D01*
X026176Y001529D02*
X026292Y001412D01*
X026643Y001412D01*
X026643Y001295D02*
X026643Y001646D01*
X026292Y001646D01*
X026176Y001529D01*
X026526Y001179D02*
X026643Y001295D01*
X026526Y001179D02*
X026292Y001179D01*
X026875Y001412D02*
X027226Y001179D01*
X027459Y001295D02*
X027459Y001529D01*
X027575Y001646D01*
X027809Y001646D01*
X027926Y001529D01*
X027926Y001295D01*
X027809Y001179D01*
X027575Y001179D01*
X027459Y001295D01*
X027226Y001646D02*
X026875Y001412D01*
X026875Y001646D02*
X026875Y000945D01*
X028158Y001179D02*
X028158Y001529D01*
X028275Y001646D01*
X028625Y001646D01*
X028625Y001179D01*
X028858Y001179D02*
X029092Y001179D01*
X028975Y001062D02*
X028975Y001529D01*
X029092Y001646D01*
D13*
X031023Y001502D02*
X031023Y001195D01*
X031330Y001195D02*
X031330Y001502D01*
X031176Y001656D01*
X031023Y001502D01*
X031483Y001502D02*
X031790Y001502D01*
X031790Y001425D01*
X031713Y001349D01*
X031560Y001349D01*
X031483Y001425D01*
X031483Y001579D01*
X031560Y001656D01*
X031713Y001656D01*
X031944Y001656D02*
X031944Y001349D01*
X031944Y001502D02*
X032097Y001349D01*
X032174Y001349D01*
X032327Y001425D02*
X032404Y001349D01*
X032634Y001349D01*
X032788Y001349D02*
X032864Y001349D01*
X032864Y001656D01*
X032788Y001656D02*
X032941Y001656D01*
X033094Y001579D02*
X033171Y001656D01*
X033325Y001656D01*
X033401Y001579D01*
X033401Y001425D01*
X033325Y001349D01*
X033171Y001349D01*
X033094Y001425D01*
X033094Y001579D01*
X032634Y001579D02*
X032557Y001656D01*
X032327Y001656D01*
X032404Y001502D02*
X032327Y001425D01*
X032404Y001502D02*
X032557Y001502D01*
X032634Y001579D01*
X032864Y001195D02*
X032864Y001119D01*
X033555Y001349D02*
X033785Y001349D01*
X033862Y001425D01*
X033862Y001656D01*
X033555Y001656D02*
X033555Y001349D01*
X034475Y001349D02*
X034629Y001195D01*
X034629Y001656D01*
X034782Y001656D02*
X034475Y001656D01*
X034936Y001656D02*
X034936Y001579D01*
X035013Y001579D01*
X035013Y001656D01*
X034936Y001656D01*
X035166Y001656D02*
X035473Y001349D01*
X035473Y001272D01*
X035396Y001195D01*
X035243Y001195D01*
X035166Y001272D01*
X035166Y001656D02*
X035473Y001656D01*
D14*
X040826Y005124D02*
X041247Y004707D01*
X042259Y004711D01*
X042668Y005120D01*
X042668Y005609D01*
X042408Y005723D01*
X042129Y005609D01*
X042133Y005408D01*
X042026Y005309D01*
X041479Y005309D01*
X041369Y005416D01*
X041369Y006526D01*
X041467Y006624D01*
X042019Y006628D01*
X042137Y006510D01*
X042137Y006250D01*
X042400Y006372D01*
X042668Y006246D01*
X042664Y006798D01*
X042263Y007199D01*
X041239Y007187D01*
X040845Y006794D01*
X040830Y006794D01*
X040826Y005124D01*
X040826Y005132D02*
X042668Y005132D01*
X042668Y005150D02*
X040826Y005150D01*
X040826Y005168D02*
X042668Y005168D01*
X042668Y005186D02*
X040826Y005186D01*
X040826Y005205D02*
X042668Y005205D01*
X042668Y005223D02*
X040826Y005223D01*
X040826Y005241D02*
X042668Y005241D01*
X042668Y005259D02*
X040826Y005259D01*
X040826Y005278D02*
X042668Y005278D01*
X042668Y005296D02*
X040826Y005296D01*
X040826Y005314D02*
X041474Y005314D01*
X041456Y005332D02*
X040826Y005332D01*
X040826Y005351D02*
X041437Y005351D01*
X041418Y005369D02*
X040826Y005369D01*
X040826Y005387D02*
X041399Y005387D01*
X041380Y005405D02*
X040826Y005405D01*
X040826Y005423D02*
X041369Y005423D01*
X041369Y005442D02*
X040826Y005442D01*
X040826Y005460D02*
X041369Y005460D01*
X041369Y005478D02*
X040827Y005478D01*
X040827Y005496D02*
X041369Y005496D01*
X041369Y005515D02*
X040827Y005515D01*
X040827Y005533D02*
X041369Y005533D01*
X041369Y005551D02*
X040827Y005551D01*
X040827Y005569D02*
X041369Y005569D01*
X041369Y005588D02*
X040827Y005588D01*
X040827Y005606D02*
X041369Y005606D01*
X041369Y005624D02*
X040827Y005624D01*
X040827Y005642D02*
X041369Y005642D01*
X041369Y005660D02*
X040827Y005660D01*
X040827Y005679D02*
X041369Y005679D01*
X041369Y005697D02*
X040827Y005697D01*
X040827Y005715D02*
X041369Y005715D01*
X041369Y005733D02*
X040827Y005733D01*
X040827Y005752D02*
X041369Y005752D01*
X041369Y005770D02*
X040827Y005770D01*
X040827Y005788D02*
X041369Y005788D01*
X041369Y005806D02*
X040827Y005806D01*
X040827Y005824D02*
X041369Y005824D01*
X041369Y005843D02*
X040827Y005843D01*
X040827Y005861D02*
X041369Y005861D01*
X041369Y005879D02*
X040827Y005879D01*
X040828Y005897D02*
X041369Y005897D01*
X041369Y005916D02*
X040828Y005916D01*
X040828Y005934D02*
X041369Y005934D01*
X041369Y005952D02*
X040828Y005952D01*
X040828Y005970D02*
X041369Y005970D01*
X041369Y005989D02*
X040828Y005989D01*
X040828Y006007D02*
X041369Y006007D01*
X041369Y006025D02*
X040828Y006025D01*
X040828Y006043D02*
X041369Y006043D01*
X041369Y006061D02*
X040828Y006061D01*
X040828Y006080D02*
X041369Y006080D01*
X041369Y006098D02*
X040828Y006098D01*
X040828Y006116D02*
X041369Y006116D01*
X041369Y006134D02*
X040828Y006134D01*
X040828Y006153D02*
X041369Y006153D01*
X041369Y006171D02*
X040828Y006171D01*
X040828Y006189D02*
X041369Y006189D01*
X041369Y006207D02*
X040828Y006207D01*
X040828Y006226D02*
X041369Y006226D01*
X041369Y006244D02*
X040828Y006244D01*
X040828Y006262D02*
X041369Y006262D01*
X041369Y006280D02*
X040828Y006280D01*
X040828Y006298D02*
X041369Y006298D01*
X041369Y006317D02*
X040829Y006317D01*
X040829Y006335D02*
X041369Y006335D01*
X041369Y006353D02*
X040829Y006353D01*
X040829Y006371D02*
X041369Y006371D01*
X041369Y006390D02*
X040829Y006390D01*
X040829Y006408D02*
X041369Y006408D01*
X041369Y006426D02*
X040829Y006426D01*
X040829Y006444D02*
X041369Y006444D01*
X041369Y006462D02*
X040829Y006462D01*
X040829Y006481D02*
X041369Y006481D01*
X041369Y006499D02*
X040829Y006499D01*
X040829Y006517D02*
X041369Y006517D01*
X041378Y006535D02*
X040829Y006535D01*
X040829Y006554D02*
X041397Y006554D01*
X041415Y006572D02*
X040829Y006572D01*
X040829Y006590D02*
X041433Y006590D01*
X041451Y006608D02*
X040829Y006608D01*
X040829Y006627D02*
X041765Y006627D01*
X042020Y006627D02*
X042666Y006627D01*
X042665Y006645D02*
X040829Y006645D01*
X040829Y006663D02*
X042665Y006663D01*
X042665Y006681D02*
X040829Y006681D01*
X040829Y006699D02*
X042665Y006699D01*
X042665Y006718D02*
X040829Y006718D01*
X040829Y006736D02*
X042665Y006736D01*
X042665Y006754D02*
X040830Y006754D01*
X040830Y006772D02*
X042664Y006772D01*
X042664Y006791D02*
X040830Y006791D01*
X040860Y006809D02*
X042653Y006809D01*
X042635Y006827D02*
X040879Y006827D01*
X040897Y006845D02*
X042617Y006845D01*
X042598Y006864D02*
X040915Y006864D01*
X040933Y006882D02*
X042580Y006882D01*
X042562Y006900D02*
X040952Y006900D01*
X040970Y006918D02*
X042544Y006918D01*
X042525Y006936D02*
X040988Y006936D01*
X041006Y006955D02*
X042507Y006955D01*
X042489Y006973D02*
X041025Y006973D01*
X041043Y006991D02*
X042471Y006991D01*
X042453Y007009D02*
X041061Y007009D01*
X041079Y007028D02*
X042434Y007028D01*
X042416Y007046D02*
X041097Y007046D01*
X041116Y007064D02*
X042398Y007064D01*
X042380Y007082D02*
X041134Y007082D01*
X041152Y007100D02*
X042361Y007100D01*
X042343Y007119D02*
X041170Y007119D01*
X041189Y007137D02*
X042325Y007137D01*
X042307Y007155D02*
X041207Y007155D01*
X041225Y007173D02*
X042289Y007173D01*
X042270Y007192D02*
X041604Y007192D01*
X042039Y006608D02*
X042666Y006608D01*
X042666Y006590D02*
X042057Y006590D01*
X042075Y006572D02*
X042666Y006572D01*
X042666Y006554D02*
X042093Y006554D01*
X042112Y006535D02*
X042666Y006535D01*
X042666Y006517D02*
X042130Y006517D01*
X042137Y006499D02*
X042666Y006499D01*
X042667Y006481D02*
X042137Y006481D01*
X042137Y006462D02*
X042667Y006462D01*
X042667Y006444D02*
X042137Y006444D01*
X042137Y006426D02*
X042667Y006426D01*
X042667Y006408D02*
X042137Y006408D01*
X042137Y006390D02*
X042667Y006390D01*
X042667Y006371D02*
X042403Y006371D01*
X042398Y006371D02*
X042137Y006371D01*
X042137Y006353D02*
X042359Y006353D01*
X042319Y006335D02*
X042137Y006335D01*
X042137Y006317D02*
X042280Y006317D01*
X042240Y006298D02*
X042137Y006298D01*
X042137Y006280D02*
X042201Y006280D01*
X042162Y006262D02*
X042137Y006262D01*
X042442Y006353D02*
X042667Y006353D01*
X042668Y006335D02*
X042480Y006335D01*
X042519Y006317D02*
X042668Y006317D01*
X042668Y006298D02*
X042558Y006298D01*
X042596Y006280D02*
X042668Y006280D01*
X042668Y006262D02*
X042635Y006262D01*
X042426Y005715D02*
X042389Y005715D01*
X042345Y005697D02*
X042467Y005697D01*
X042509Y005679D02*
X042300Y005679D01*
X042256Y005660D02*
X042550Y005660D01*
X042592Y005642D02*
X042211Y005642D01*
X042166Y005624D02*
X042633Y005624D01*
X042668Y005606D02*
X042129Y005606D01*
X042129Y005588D02*
X042668Y005588D01*
X042668Y005569D02*
X042130Y005569D01*
X042130Y005551D02*
X042668Y005551D01*
X042668Y005533D02*
X042130Y005533D01*
X042131Y005515D02*
X042668Y005515D01*
X042668Y005496D02*
X042131Y005496D01*
X042131Y005478D02*
X042668Y005478D01*
X042668Y005460D02*
X042132Y005460D01*
X042132Y005442D02*
X042668Y005442D01*
X042668Y005423D02*
X042132Y005423D01*
X042130Y005405D02*
X042668Y005405D01*
X042668Y005387D02*
X042110Y005387D01*
X042091Y005369D02*
X042668Y005369D01*
X042668Y005351D02*
X042071Y005351D01*
X042051Y005332D02*
X042668Y005332D01*
X042668Y005314D02*
X042031Y005314D01*
X042497Y004950D02*
X041002Y004950D01*
X040984Y004968D02*
X042515Y004968D01*
X042534Y004986D02*
X040965Y004986D01*
X040947Y005004D02*
X042552Y005004D01*
X042570Y005022D02*
X040929Y005022D01*
X040910Y005041D02*
X042588Y005041D01*
X042607Y005059D02*
X040892Y005059D01*
X040873Y005077D02*
X042625Y005077D01*
X042643Y005095D02*
X040855Y005095D01*
X040837Y005114D02*
X042661Y005114D01*
X042479Y004931D02*
X041021Y004931D01*
X041039Y004913D02*
X042461Y004913D01*
X042443Y004895D02*
X041057Y004895D01*
X041076Y004877D02*
X042424Y004877D01*
X042406Y004858D02*
X041094Y004858D01*
X041113Y004840D02*
X042388Y004840D01*
X042370Y004822D02*
X041131Y004822D01*
X041149Y004804D02*
X042351Y004804D01*
X042333Y004785D02*
X041168Y004785D01*
X041186Y004767D02*
X042315Y004767D01*
X042297Y004749D02*
X041205Y004749D01*
X041223Y004731D02*
X042279Y004731D01*
X042260Y004713D02*
X041241Y004713D01*
D15*
X036397Y003723D02*
X035885Y003723D01*
X035885Y006124D01*
X027617Y006124D01*
X027617Y003723D01*
X027184Y003723D01*
X027184Y009235D01*
X030609Y009235D01*
X030609Y009431D01*
X032971Y009431D01*
X032971Y009235D01*
X036397Y009235D01*
X036397Y003723D01*
M02*
