%
M48
M72
T01C0.0236
T02C0.0315
T03C0.0394
T04C0.1181
%
T01
X18798Y5613
X20767Y6400
X22523Y7246
X24900Y7187
X26082Y7975
X27263Y7581
X27853Y8369
X31790Y8369
X38680Y7916
X41042Y7916
X43404Y7916
X39074Y5947
X27066Y4825
X24507Y5947
X19586Y4431
T02
X21298Y3585
X20688Y3428
X21810Y3211
X21160Y2857
X21810Y2502
X21298Y2128
X20688Y2286
X20432Y2857
X27519Y2857
X28247Y2857
X28897Y3211
X28385Y3585
X27774Y3428
X28897Y2502
X28385Y2128
X27774Y2286
X28247Y4628
X29034Y4628
X29822Y4628
X30609Y4628
X31397Y4628
X32184Y4628
X32971Y4628
X33759Y4628
X34546Y4628
X35334Y4628
X35334Y5613
X34546Y5613
X33759Y5613
X32971Y5613
X32184Y5613
X31397Y5613
X30609Y5613
X29822Y5613
X29034Y5613
X28247Y5613
X34605Y2857
X34861Y2286
X35471Y2128
X35983Y2502
X35334Y2857
X35983Y3211
X35471Y3585
X34861Y3428
X41692Y2857
X41948Y2286
X42558Y2128
X43070Y2502
X42420Y2857
X43070Y3211
X42558Y3585
X41948Y3428
T03
X38483Y2857
X31397Y2857
X24310Y2857
X45570Y2857
T04
X34152Y7581
X29428Y7581
M30
