G75*
G70*
%OFA0B0*%
%FSLAX24Y24*%
%IPPOS*%
%LPD*%
%AMOC8*
5,1,8,0,0,1.08239X$1,22.5*
%
%ADD10C,0.0000*%
%ADD11C,0.0472*%
%ADD12C,0.0591*%
%ADD13R,0.0394X0.0433*%
%ADD14C,0.0160*%
%ADD15C,0.0376*%
D10*
X018011Y001676D02*
X018011Y007581D01*
X018013Y007658D01*
X018019Y007735D01*
X018028Y007812D01*
X018041Y007888D01*
X018058Y007964D01*
X018079Y008038D01*
X018103Y008112D01*
X018131Y008184D01*
X018162Y008254D01*
X018197Y008323D01*
X018235Y008391D01*
X018276Y008456D01*
X018321Y008519D01*
X018369Y008580D01*
X018419Y008639D01*
X018472Y008695D01*
X018528Y008748D01*
X018587Y008798D01*
X018648Y008846D01*
X018711Y008891D01*
X018776Y008932D01*
X018844Y008970D01*
X018913Y009005D01*
X018983Y009036D01*
X019055Y009064D01*
X019129Y009088D01*
X019203Y009109D01*
X019279Y009126D01*
X019355Y009139D01*
X019432Y009148D01*
X019509Y009154D01*
X019586Y009156D01*
X044782Y009156D01*
X044859Y009154D01*
X044936Y009148D01*
X045013Y009139D01*
X045089Y009126D01*
X045165Y009109D01*
X045239Y009088D01*
X045313Y009064D01*
X045385Y009036D01*
X045455Y009005D01*
X045524Y008970D01*
X045592Y008932D01*
X045657Y008891D01*
X045720Y008846D01*
X045781Y008798D01*
X045840Y008748D01*
X045896Y008695D01*
X045949Y008639D01*
X045999Y008580D01*
X046047Y008519D01*
X046092Y008456D01*
X046133Y008391D01*
X046171Y008323D01*
X046206Y008254D01*
X046237Y008184D01*
X046265Y008112D01*
X046289Y008038D01*
X046310Y007964D01*
X046327Y007888D01*
X046340Y007812D01*
X046349Y007735D01*
X046355Y007658D01*
X046357Y007581D01*
X046357Y001676D01*
X046355Y001599D01*
X046349Y001522D01*
X046340Y001445D01*
X046327Y001369D01*
X046310Y001293D01*
X046289Y001219D01*
X046265Y001145D01*
X046237Y001073D01*
X046206Y001003D01*
X046171Y000934D01*
X046133Y000866D01*
X046092Y000801D01*
X046047Y000738D01*
X045999Y000677D01*
X045949Y000618D01*
X045896Y000562D01*
X045840Y000509D01*
X045781Y000459D01*
X045720Y000411D01*
X045657Y000366D01*
X045592Y000325D01*
X045524Y000287D01*
X045455Y000252D01*
X045385Y000221D01*
X045313Y000193D01*
X045239Y000169D01*
X045165Y000148D01*
X045089Y000131D01*
X045013Y000118D01*
X044936Y000109D01*
X044859Y000103D01*
X044782Y000101D01*
X019586Y000101D01*
X019509Y000103D01*
X019432Y000109D01*
X019355Y000118D01*
X019279Y000131D01*
X019203Y000148D01*
X019129Y000169D01*
X019055Y000193D01*
X018983Y000221D01*
X018913Y000252D01*
X018844Y000287D01*
X018776Y000325D01*
X018711Y000366D01*
X018648Y000411D01*
X018587Y000459D01*
X018528Y000509D01*
X018472Y000562D01*
X018419Y000618D01*
X018369Y000677D01*
X018321Y000738D01*
X018276Y000801D01*
X018235Y000866D01*
X018197Y000934D01*
X018162Y001003D01*
X018131Y001073D01*
X018103Y001145D01*
X018079Y001219D01*
X018058Y001293D01*
X018041Y001369D01*
X018028Y001445D01*
X018019Y001522D01*
X018013Y001599D01*
X018011Y001676D01*
X028837Y007581D02*
X028839Y007629D01*
X028845Y007677D01*
X028855Y007724D01*
X028868Y007770D01*
X028886Y007815D01*
X028906Y007859D01*
X028931Y007901D01*
X028959Y007940D01*
X028989Y007977D01*
X029023Y008011D01*
X029060Y008043D01*
X029098Y008072D01*
X029139Y008097D01*
X029182Y008119D01*
X029227Y008137D01*
X029273Y008151D01*
X029320Y008162D01*
X029368Y008169D01*
X029416Y008172D01*
X029464Y008171D01*
X029512Y008166D01*
X029560Y008157D01*
X029606Y008145D01*
X029651Y008128D01*
X029695Y008108D01*
X029737Y008085D01*
X029777Y008058D01*
X029815Y008028D01*
X029850Y007995D01*
X029882Y007959D01*
X029912Y007921D01*
X029938Y007880D01*
X029960Y007837D01*
X029980Y007793D01*
X029995Y007748D01*
X030007Y007701D01*
X030015Y007653D01*
X030019Y007605D01*
X030019Y007557D01*
X030015Y007509D01*
X030007Y007461D01*
X029995Y007414D01*
X029980Y007369D01*
X029960Y007325D01*
X029938Y007282D01*
X029912Y007241D01*
X029882Y007203D01*
X029850Y007167D01*
X029815Y007134D01*
X029777Y007104D01*
X029737Y007077D01*
X029695Y007054D01*
X029651Y007034D01*
X029606Y007017D01*
X029560Y007005D01*
X029512Y006996D01*
X029464Y006991D01*
X029416Y006990D01*
X029368Y006993D01*
X029320Y007000D01*
X029273Y007011D01*
X029227Y007025D01*
X029182Y007043D01*
X029139Y007065D01*
X029098Y007090D01*
X029060Y007119D01*
X029023Y007151D01*
X028989Y007185D01*
X028959Y007222D01*
X028931Y007261D01*
X028906Y007303D01*
X028886Y007347D01*
X028868Y007392D01*
X028855Y007438D01*
X028845Y007485D01*
X028839Y007533D01*
X028837Y007581D01*
X033561Y007581D02*
X033563Y007629D01*
X033569Y007677D01*
X033579Y007724D01*
X033592Y007770D01*
X033610Y007815D01*
X033630Y007859D01*
X033655Y007901D01*
X033683Y007940D01*
X033713Y007977D01*
X033747Y008011D01*
X033784Y008043D01*
X033822Y008072D01*
X033863Y008097D01*
X033906Y008119D01*
X033951Y008137D01*
X033997Y008151D01*
X034044Y008162D01*
X034092Y008169D01*
X034140Y008172D01*
X034188Y008171D01*
X034236Y008166D01*
X034284Y008157D01*
X034330Y008145D01*
X034375Y008128D01*
X034419Y008108D01*
X034461Y008085D01*
X034501Y008058D01*
X034539Y008028D01*
X034574Y007995D01*
X034606Y007959D01*
X034636Y007921D01*
X034662Y007880D01*
X034684Y007837D01*
X034704Y007793D01*
X034719Y007748D01*
X034731Y007701D01*
X034739Y007653D01*
X034743Y007605D01*
X034743Y007557D01*
X034739Y007509D01*
X034731Y007461D01*
X034719Y007414D01*
X034704Y007369D01*
X034684Y007325D01*
X034662Y007282D01*
X034636Y007241D01*
X034606Y007203D01*
X034574Y007167D01*
X034539Y007134D01*
X034501Y007104D01*
X034461Y007077D01*
X034419Y007054D01*
X034375Y007034D01*
X034330Y007017D01*
X034284Y007005D01*
X034236Y006996D01*
X034188Y006991D01*
X034140Y006990D01*
X034092Y006993D01*
X034044Y007000D01*
X033997Y007011D01*
X033951Y007025D01*
X033906Y007043D01*
X033863Y007065D01*
X033822Y007090D01*
X033784Y007119D01*
X033747Y007151D01*
X033713Y007185D01*
X033683Y007222D01*
X033655Y007261D01*
X033630Y007303D01*
X033610Y007347D01*
X033592Y007392D01*
X033579Y007438D01*
X033569Y007485D01*
X033563Y007533D01*
X033561Y007581D01*
D11*
X033759Y005613D03*
X034546Y005613D03*
X035334Y005613D03*
X035334Y004628D03*
X034546Y004628D03*
X033759Y004628D03*
X032971Y004628D03*
X032184Y004628D03*
X031397Y004628D03*
X030609Y004628D03*
X029822Y004628D03*
X029034Y004628D03*
X028247Y004628D03*
X028247Y005613D03*
X029034Y005613D03*
X029822Y005613D03*
X030609Y005613D03*
X031397Y005613D03*
X032184Y005613D03*
X032971Y005613D03*
X035471Y003585D03*
X034861Y003428D03*
X035983Y003211D03*
X035334Y002857D03*
X035983Y002502D03*
X035471Y002128D03*
X034861Y002286D03*
X034605Y002857D03*
X028897Y003211D03*
X028385Y003585D03*
X027774Y003428D03*
X027519Y002857D03*
X028247Y002857D03*
X028897Y002502D03*
X028385Y002128D03*
X027774Y002286D03*
X021810Y002502D03*
X021160Y002857D03*
X020432Y002857D03*
X020688Y002286D03*
X021298Y002128D03*
X021810Y003211D03*
X021298Y003585D03*
X020688Y003428D03*
X041692Y002857D03*
X041948Y002286D03*
X042558Y002128D03*
X043070Y002502D03*
X042420Y002857D03*
X043070Y003211D03*
X042558Y003585D03*
X041948Y003428D03*
D12*
X038483Y002857D03*
X031397Y002857D03*
X024310Y002857D03*
X045570Y002857D03*
D13*
X045176Y005278D03*
X045176Y005947D03*
X045176Y007246D03*
X045176Y007916D03*
X043995Y007916D03*
X042814Y007916D03*
X042814Y007246D03*
X043995Y007246D03*
X041633Y007246D03*
X040452Y007246D03*
X040452Y007916D03*
X041633Y007916D03*
X039271Y007916D03*
X039271Y007246D03*
X038089Y007246D03*
X036908Y007246D03*
X036908Y007916D03*
X038089Y007916D03*
X035727Y007916D03*
X035727Y007246D03*
X032578Y007246D03*
X032578Y007916D03*
X031003Y007916D03*
X031003Y007246D03*
X027853Y007246D03*
X026672Y007246D03*
X026672Y007916D03*
X027853Y007916D03*
X025491Y007916D03*
X024310Y007916D03*
X024310Y007246D03*
X025491Y007246D03*
X025097Y005947D03*
X025097Y005278D03*
X023916Y005278D03*
X023916Y005947D03*
X021948Y007246D03*
X021948Y007916D03*
X020767Y007916D03*
X019586Y007916D03*
X019586Y007246D03*
X020767Y007246D03*
X038483Y005947D03*
X038483Y005278D03*
X039664Y005278D03*
X039664Y005947D03*
D14*
X039074Y005947D01*
X038483Y005947D01*
X038086Y005967D02*
X037265Y005967D01*
X037188Y005890D02*
X038128Y006830D01*
X038369Y006830D01*
X038486Y006947D01*
X038486Y007546D01*
X038451Y007581D01*
X038458Y007589D01*
X038460Y007587D01*
X038603Y007528D01*
X038757Y007528D01*
X038900Y007587D01*
X038902Y007589D01*
X038925Y007565D01*
X038906Y007532D01*
X038894Y007487D01*
X038894Y007265D01*
X039252Y007265D01*
X039252Y007228D01*
X038894Y007228D01*
X038894Y007006D01*
X038906Y006960D01*
X038930Y006919D01*
X038963Y006886D01*
X039004Y006862D01*
X039050Y006850D01*
X039252Y006850D01*
X039252Y007228D01*
X039289Y007228D01*
X039289Y007265D01*
X039647Y007265D01*
X039647Y007487D01*
X039635Y007532D01*
X039616Y007565D01*
X039667Y007616D01*
X039667Y008215D01*
X039550Y008332D01*
X038991Y008332D01*
X038902Y008243D01*
X038900Y008245D01*
X038757Y008304D01*
X038603Y008304D01*
X038460Y008245D01*
X038458Y008243D01*
X038369Y008332D01*
X037810Y008332D01*
X037693Y008215D01*
X037693Y007616D01*
X037728Y007581D01*
X037693Y007546D01*
X037693Y007186D01*
X036671Y006165D01*
X036628Y006062D01*
X036628Y005951D01*
X036628Y002185D01*
X036399Y001956D01*
X036040Y001956D01*
X035908Y002088D01*
X035908Y002093D01*
X035950Y002086D01*
X035983Y002086D01*
X035983Y002502D01*
X035983Y002502D01*
X035983Y002086D01*
X036016Y002086D01*
X036081Y002096D01*
X036143Y002117D01*
X036201Y002146D01*
X036254Y002185D01*
X036301Y002231D01*
X036339Y002284D01*
X036369Y002343D01*
X036389Y002405D01*
X036399Y002470D01*
X036399Y002502D01*
X035984Y002502D01*
X035984Y002503D01*
X036399Y002503D01*
X036399Y002535D01*
X036389Y002600D01*
X036369Y002662D01*
X036339Y002720D01*
X036301Y002774D01*
X036254Y002820D01*
X036227Y002840D01*
X036230Y002841D01*
X036353Y002964D01*
X036419Y003124D01*
X036419Y003298D01*
X036353Y003458D01*
X036230Y003581D01*
X036070Y003647D01*
X035908Y003647D01*
X035908Y003672D01*
X035859Y003789D01*
X035886Y003800D01*
X036358Y004273D01*
X036401Y004376D01*
X036401Y004487D01*
X036401Y006797D01*
X036401Y006908D01*
X036358Y007011D01*
X036124Y007246D01*
X036124Y007546D01*
X036089Y007581D01*
X036124Y007616D01*
X036124Y007636D01*
X036511Y007636D01*
X036511Y007616D01*
X036563Y007565D01*
X036544Y007532D01*
X036531Y007487D01*
X036531Y007265D01*
X036890Y007265D01*
X036890Y007228D01*
X036927Y007228D01*
X036927Y007265D01*
X037285Y007265D01*
X037285Y007487D01*
X037273Y007532D01*
X037254Y007565D01*
X037305Y007616D01*
X037305Y008215D01*
X037188Y008332D01*
X036629Y008332D01*
X036511Y008215D01*
X036511Y008196D01*
X036124Y008196D01*
X036124Y008215D01*
X036007Y008332D01*
X035448Y008332D01*
X035330Y008215D01*
X035330Y007974D01*
X035175Y007818D01*
X035096Y007740D01*
X035054Y007637D01*
X035054Y005949D01*
X034964Y005860D01*
X034940Y005802D01*
X034916Y005860D01*
X034793Y005982D01*
X034633Y006049D01*
X034459Y006049D01*
X034299Y005982D01*
X034176Y005860D01*
X034142Y005777D01*
X034115Y005831D01*
X034076Y005884D01*
X034030Y005930D01*
X033977Y005969D01*
X033919Y005998D01*
X033856Y006019D01*
X033791Y006029D01*
X033759Y006029D01*
X033759Y005613D01*
X033759Y005613D01*
X033759Y006029D01*
X033726Y006029D01*
X033661Y006019D01*
X033599Y005998D01*
X033541Y005969D01*
X033488Y005930D01*
X033441Y005884D01*
X033403Y005831D01*
X033373Y005772D01*
X033365Y005748D01*
X033357Y005772D01*
X033327Y005831D01*
X033289Y005884D01*
X033242Y005930D01*
X033189Y005969D01*
X033131Y005998D01*
X033069Y006019D01*
X033004Y006029D01*
X032971Y006029D01*
X032939Y006029D01*
X032874Y006019D01*
X032812Y005998D01*
X032753Y005969D01*
X032700Y005930D01*
X032654Y005884D01*
X032615Y005831D01*
X032588Y005777D01*
X032554Y005860D01*
X032431Y005982D01*
X032271Y006049D01*
X032229Y006049D01*
X032300Y006120D01*
X032916Y006120D01*
X033027Y006120D01*
X033130Y006163D01*
X033445Y006478D01*
X033524Y006556D01*
X033566Y006659D01*
X033566Y007007D01*
X033688Y006885D01*
X033989Y006761D01*
X034316Y006761D01*
X034617Y006885D01*
X034848Y007116D01*
X034973Y007418D01*
X034973Y007744D01*
X034848Y008046D01*
X034617Y008277D01*
X034316Y008402D01*
X033989Y008402D01*
X033688Y008277D01*
X033566Y008155D01*
X033566Y008174D01*
X033875Y008482D01*
X044666Y008482D01*
X044856Y008292D01*
X044779Y008215D01*
X044779Y007616D01*
X044814Y007581D01*
X044779Y007546D01*
X044779Y007186D01*
X044273Y006680D01*
X043152Y006680D01*
X043049Y006637D01*
X042970Y006559D01*
X041125Y004714D01*
X041125Y005103D01*
X042852Y006830D01*
X043094Y006830D01*
X043211Y006947D01*
X043211Y007546D01*
X043175Y007581D01*
X043183Y007589D01*
X043185Y007587D01*
X043327Y007528D01*
X043482Y007528D01*
X043624Y007587D01*
X043626Y007589D01*
X043649Y007565D01*
X043630Y007532D01*
X043618Y007487D01*
X043618Y007265D01*
X043976Y007265D01*
X043976Y007228D01*
X043618Y007228D01*
X043618Y007006D01*
X043630Y006960D01*
X043654Y006919D01*
X043688Y006886D01*
X043729Y006862D01*
X043774Y006850D01*
X043976Y006850D01*
X043976Y007228D01*
X044013Y007228D01*
X044013Y006850D01*
X044216Y006850D01*
X044261Y006862D01*
X044302Y006886D01*
X044336Y006919D01*
X044359Y006960D01*
X044372Y007006D01*
X044372Y007228D01*
X044014Y007228D01*
X044014Y007265D01*
X044372Y007265D01*
X044372Y007487D01*
X044359Y007532D01*
X044341Y007565D01*
X044392Y007616D01*
X044392Y008215D01*
X044275Y008332D01*
X043715Y008332D01*
X043626Y008243D01*
X043624Y008245D01*
X043482Y008304D01*
X043327Y008304D01*
X043185Y008245D01*
X043183Y008243D01*
X043094Y008332D01*
X042534Y008332D01*
X042417Y008215D01*
X042417Y007616D01*
X042452Y007581D01*
X042417Y007546D01*
X042417Y007186D01*
X040732Y005501D01*
X040732Y006830D01*
X040848Y006947D01*
X040848Y007546D01*
X040813Y007581D01*
X040821Y007589D01*
X040822Y007587D01*
X040965Y007528D01*
X041119Y007528D01*
X041262Y007587D01*
X041264Y007589D01*
X041287Y007565D01*
X041268Y007532D01*
X041256Y007487D01*
X041256Y007265D01*
X041614Y007265D01*
X041614Y007228D01*
X041256Y007228D01*
X041256Y007006D01*
X041268Y006960D01*
X041292Y006919D01*
X041325Y006886D01*
X041366Y006862D01*
X041412Y006850D01*
X041614Y006850D01*
X041614Y007228D01*
X041651Y007228D01*
X041651Y006850D01*
X041853Y006850D01*
X041899Y006862D01*
X041940Y006886D01*
X041974Y006919D01*
X041997Y006960D01*
X042010Y007006D01*
X042010Y007228D01*
X041651Y007228D01*
X041651Y007265D01*
X042010Y007265D01*
X042010Y007487D01*
X041997Y007532D01*
X041978Y007565D01*
X042030Y007616D01*
X042030Y008215D01*
X041912Y008332D01*
X041353Y008332D01*
X041264Y008243D01*
X041262Y008245D01*
X041119Y008304D01*
X040965Y008304D01*
X040822Y008245D01*
X040821Y008243D01*
X040731Y008332D01*
X040172Y008332D01*
X040055Y008215D01*
X040055Y007616D01*
X040090Y007581D01*
X040055Y007546D01*
X040055Y006947D01*
X040172Y006830D01*
X040172Y002407D01*
X040214Y002304D01*
X040293Y002226D01*
X041080Y001438D01*
X041183Y001396D01*
X041295Y001396D01*
X042161Y001396D01*
X042264Y001438D01*
X042343Y001517D01*
X042518Y001692D01*
X042645Y001692D01*
X042805Y001759D01*
X042928Y001881D01*
X042994Y002042D01*
X042994Y002093D01*
X043037Y002086D01*
X043070Y002086D01*
X043103Y002086D01*
X043167Y002096D01*
X043230Y002117D01*
X043288Y002146D01*
X043341Y002185D01*
X043387Y002231D01*
X043426Y002284D01*
X043455Y002343D01*
X043476Y002405D01*
X043486Y002470D01*
X043486Y002502D01*
X043070Y002502D01*
X043070Y002086D01*
X043070Y002502D01*
X043070Y002502D01*
X043070Y002503D01*
X043486Y002503D01*
X043486Y002535D01*
X043476Y002600D01*
X043455Y002662D01*
X043426Y002720D01*
X043387Y002774D01*
X043341Y002820D01*
X043313Y002840D01*
X043317Y002841D01*
X043440Y002964D01*
X043506Y003124D01*
X043506Y003298D01*
X043440Y003458D01*
X043317Y003581D01*
X043157Y003647D01*
X042994Y003647D01*
X042994Y003672D01*
X042928Y003832D01*
X042805Y003955D01*
X042645Y004021D01*
X042471Y004021D01*
X042311Y003955D01*
X042188Y003832D01*
X042177Y003805D01*
X042034Y003864D01*
X041861Y003864D01*
X041701Y003797D01*
X041578Y003675D01*
X041519Y003532D01*
X041519Y004316D01*
X043324Y006120D01*
X044333Y006120D01*
X044444Y006120D01*
X044547Y006163D01*
X044936Y006551D01*
X044896Y006456D01*
X044896Y006363D01*
X044779Y006247D01*
X044779Y005648D01*
X044830Y005597D01*
X044811Y005564D01*
X044799Y005518D01*
X044799Y005296D01*
X045157Y005296D01*
X045157Y005259D01*
X044799Y005259D01*
X044799Y005038D01*
X044811Y004992D01*
X044835Y004951D01*
X044869Y004917D01*
X044910Y004894D01*
X044955Y004881D01*
X045158Y004881D01*
X045158Y005259D01*
X045194Y005259D01*
X045194Y004881D01*
X045397Y004881D01*
X045442Y004894D01*
X045483Y004917D01*
X045517Y004951D01*
X045541Y004992D01*
X045553Y005038D01*
X045553Y005259D01*
X045195Y005259D01*
X045195Y005296D01*
X045553Y005296D01*
X045553Y005518D01*
X045541Y005564D01*
X045522Y005597D01*
X045573Y005648D01*
X045573Y006247D01*
X045496Y006324D01*
X045728Y006556D01*
X045807Y006635D01*
X045850Y006738D01*
X045850Y007466D01*
X045850Y007578D01*
X045807Y007681D01*
X045573Y007915D01*
X045573Y008215D01*
X045456Y008332D01*
X045456Y008424D01*
X045413Y008527D01*
X045335Y008606D01*
X045178Y008762D01*
X045403Y008762D01*
X045601Y008648D01*
X045849Y008400D01*
X045963Y008202D01*
X045963Y003163D01*
X045850Y003277D01*
X045668Y003352D01*
X045471Y003352D01*
X045289Y003277D01*
X045150Y003137D01*
X045074Y002955D01*
X045074Y002758D01*
X045150Y002576D01*
X045289Y002437D01*
X045471Y002361D01*
X045668Y002361D01*
X045850Y002437D01*
X045963Y002550D01*
X045963Y001055D01*
X045849Y000857D01*
X045601Y000609D01*
X045403Y000494D01*
X018965Y000494D01*
X018767Y000609D01*
X018519Y000857D01*
X018404Y001055D01*
X018404Y008202D01*
X018519Y008400D01*
X018767Y008648D01*
X018965Y008762D01*
X020764Y008762D01*
X020529Y008527D01*
X020487Y008424D01*
X020487Y008332D01*
X020370Y008215D01*
X020370Y008196D01*
X019982Y008196D01*
X019982Y008215D01*
X019865Y008332D01*
X019306Y008332D01*
X019189Y008215D01*
X019189Y007616D01*
X019224Y007581D01*
X019189Y007546D01*
X019189Y006947D01*
X019306Y006830D01*
X019306Y004700D01*
X019256Y004651D01*
X019197Y004509D01*
X019197Y004354D01*
X019256Y004212D01*
X019306Y004163D01*
X019306Y003982D01*
X019306Y002801D01*
X019348Y002698D01*
X019427Y002619D01*
X019998Y002048D01*
X020101Y002006D01*
X020212Y002006D01*
X020351Y002006D01*
X020441Y001916D01*
X020601Y001850D01*
X020775Y001850D01*
X020917Y001909D01*
X020928Y001881D01*
X021051Y001759D01*
X021211Y001692D01*
X021338Y001692D01*
X021514Y001517D01*
X021592Y001438D01*
X021695Y001396D01*
X021892Y001396D01*
X022003Y001396D01*
X022106Y001438D01*
X022894Y002226D01*
X022972Y002304D01*
X023015Y002407D01*
X023015Y003195D01*
X023015Y003306D01*
X022972Y003409D01*
X022228Y004154D01*
X022228Y006830D01*
X022311Y006914D01*
X022445Y006858D01*
X022600Y006858D01*
X022742Y006917D01*
X022851Y007027D01*
X022911Y007169D01*
X022911Y007324D01*
X022851Y007466D01*
X022742Y007575D01*
X022600Y007635D01*
X022445Y007635D01*
X022311Y007579D01*
X022309Y007581D01*
X022345Y007616D01*
X022345Y008215D01*
X022227Y008332D01*
X021668Y008332D01*
X021551Y008215D01*
X021551Y008196D01*
X021163Y008196D01*
X021163Y008215D01*
X021086Y008292D01*
X021276Y008482D01*
X023800Y008482D01*
X023990Y008292D01*
X023913Y008215D01*
X023913Y007616D01*
X023948Y007581D01*
X023913Y007546D01*
X023913Y006947D01*
X024030Y006830D01*
X024271Y006830D01*
X024466Y006635D01*
X024545Y006556D01*
X024648Y006514D01*
X025375Y006514D01*
X025605Y006284D01*
X025457Y006284D01*
X025494Y006247D02*
X025377Y006364D01*
X024818Y006364D01*
X024728Y006274D01*
X024727Y006276D01*
X024584Y006335D01*
X024430Y006335D01*
X024287Y006276D01*
X024285Y006274D01*
X024196Y006364D01*
X023636Y006364D01*
X023519Y006247D01*
X023519Y005648D01*
X023555Y005613D01*
X023519Y005577D01*
X023519Y004979D01*
X023636Y004862D01*
X023636Y004769D01*
X023679Y004667D01*
X023758Y004588D01*
X026907Y001438D01*
X027010Y001396D01*
X027121Y001396D01*
X027876Y001396D01*
X027988Y001396D01*
X028091Y001438D01*
X028344Y001692D01*
X028471Y001692D01*
X028632Y001759D01*
X028754Y001881D01*
X028821Y002042D01*
X028821Y002093D01*
X028864Y002086D01*
X028896Y002086D01*
X028896Y002502D01*
X028897Y002502D01*
X028897Y002503D01*
X029313Y002503D01*
X029313Y002535D01*
X029302Y002600D01*
X029282Y002662D01*
X029252Y002720D01*
X029214Y002774D01*
X029168Y002820D01*
X029140Y002840D01*
X029144Y002841D01*
X029233Y002931D01*
X029444Y002931D01*
X029547Y002974D01*
X029626Y003052D01*
X030453Y003879D01*
X030495Y003982D01*
X030495Y004093D01*
X030495Y004203D01*
X030522Y004192D01*
X030696Y004192D01*
X030856Y004259D01*
X030979Y004381D01*
X031003Y004439D01*
X031027Y004381D01*
X031149Y004259D01*
X031310Y004192D01*
X031483Y004192D01*
X031644Y004259D01*
X031766Y004381D01*
X031790Y004439D01*
X031814Y004381D01*
X031937Y004259D01*
X032097Y004192D01*
X032271Y004192D01*
X032431Y004259D01*
X032554Y004381D01*
X032578Y004439D01*
X032602Y004381D01*
X032724Y004259D01*
X032885Y004192D01*
X033058Y004192D01*
X033218Y004259D01*
X033341Y004381D01*
X033365Y004439D01*
X033389Y004381D01*
X033479Y004291D01*
X033479Y004154D01*
X032462Y003137D01*
X031817Y003137D01*
X031816Y003137D01*
X031677Y003277D01*
X031495Y003352D01*
X031298Y003352D01*
X031116Y003277D01*
X030977Y003137D01*
X030901Y002955D01*
X030901Y002758D01*
X030977Y002576D01*
X031116Y002437D01*
X031298Y002361D01*
X031495Y002361D01*
X031677Y002437D01*
X031816Y002576D01*
X031817Y002577D01*
X032522Y002577D01*
X032633Y002577D01*
X032736Y002619D01*
X033912Y003795D01*
X033872Y003700D01*
X033872Y003306D01*
X033872Y003195D01*
X033915Y003092D01*
X034169Y002838D01*
X034169Y002770D01*
X034235Y002610D01*
X034358Y002487D01*
X034456Y002447D01*
X034425Y002373D01*
X034425Y002199D01*
X034491Y002039D01*
X034581Y001949D01*
X034581Y001810D01*
X034581Y001699D01*
X034624Y001596D01*
X035096Y001123D01*
X035175Y001045D01*
X035278Y001002D01*
X036853Y001002D01*
X036964Y001002D01*
X037067Y001045D01*
X037461Y001438D01*
X037539Y001517D01*
X037582Y001620D01*
X037582Y003134D01*
X038642Y004194D01*
X038720Y004273D01*
X038763Y004376D01*
X038763Y004862D01*
X038880Y004979D01*
X038880Y005577D01*
X038845Y005613D01*
X038852Y005620D01*
X038854Y005618D01*
X038996Y005559D01*
X039151Y005559D01*
X039294Y005618D01*
X039295Y005620D01*
X039319Y005597D01*
X039300Y005564D01*
X039287Y005518D01*
X039287Y005296D01*
X039646Y005296D01*
X039646Y005259D01*
X039683Y005259D01*
X039683Y004881D01*
X039885Y004881D01*
X039931Y004894D01*
X039972Y004917D01*
X040005Y004951D01*
X040029Y004992D01*
X040041Y005038D01*
X040041Y005259D01*
X039683Y005259D01*
X039683Y005296D01*
X040041Y005296D01*
X040041Y005518D01*
X040029Y005564D01*
X040010Y005597D01*
X040061Y005648D01*
X040061Y006247D01*
X039944Y006364D01*
X039385Y006364D01*
X039295Y006274D01*
X039294Y006276D01*
X039151Y006335D01*
X038996Y006335D01*
X038854Y006276D01*
X038852Y006274D01*
X038763Y006364D01*
X038203Y006364D01*
X038086Y006247D01*
X038086Y005648D01*
X038122Y005613D01*
X038086Y005577D01*
X038086Y004979D01*
X038203Y004862D01*
X038203Y004547D01*
X037188Y003533D01*
X037188Y005890D01*
X037188Y005808D02*
X038086Y005808D01*
X038086Y005650D02*
X037188Y005650D01*
X037188Y005491D02*
X038086Y005491D01*
X038086Y005333D02*
X037188Y005333D01*
X037188Y005174D02*
X038086Y005174D01*
X038086Y005016D02*
X037188Y005016D01*
X037188Y004857D02*
X038203Y004857D01*
X038203Y004699D02*
X037188Y004699D01*
X037188Y004540D02*
X038196Y004540D01*
X038037Y004381D02*
X037188Y004381D01*
X037188Y004223D02*
X037879Y004223D01*
X037720Y004064D02*
X037188Y004064D01*
X037188Y003906D02*
X037562Y003906D01*
X037403Y003747D02*
X037188Y003747D01*
X037188Y003589D02*
X037244Y003589D01*
X037878Y003430D02*
X040172Y003430D01*
X040172Y003272D02*
X038769Y003272D01*
X038764Y003277D02*
X038582Y003352D01*
X038385Y003352D01*
X038203Y003277D01*
X038063Y003137D01*
X037988Y002955D01*
X037988Y002758D01*
X038063Y002576D01*
X038203Y002437D01*
X038385Y002361D01*
X038582Y002361D01*
X038764Y002437D01*
X038903Y002576D01*
X038978Y002758D01*
X038978Y002955D01*
X038903Y003137D01*
X038764Y003277D01*
X038913Y003113D02*
X040172Y003113D01*
X040172Y002955D02*
X038978Y002955D01*
X038978Y002796D02*
X040172Y002796D01*
X040172Y002637D02*
X038928Y002637D01*
X038806Y002479D02*
X040172Y002479D01*
X040208Y002320D02*
X037582Y002320D01*
X037582Y002162D02*
X040357Y002162D01*
X040515Y002003D02*
X037582Y002003D01*
X037582Y001845D02*
X040674Y001845D01*
X040832Y001686D02*
X037582Y001686D01*
X037544Y001528D02*
X040991Y001528D01*
X041239Y001676D02*
X040452Y002463D01*
X040452Y007246D01*
X040848Y007235D02*
X041614Y007235D01*
X041651Y007235D02*
X042417Y007235D01*
X042417Y007394D02*
X042010Y007394D01*
X041986Y007552D02*
X042424Y007552D01*
X042417Y007711D02*
X042030Y007711D01*
X042030Y007869D02*
X042417Y007869D01*
X042417Y008028D02*
X042030Y008028D01*
X042030Y008186D02*
X042417Y008186D01*
X042814Y007916D02*
X043404Y007916D01*
X043995Y007916D01*
X044392Y007869D02*
X044779Y007869D01*
X044779Y007711D02*
X044392Y007711D01*
X044348Y007552D02*
X044786Y007552D01*
X044779Y007394D02*
X044372Y007394D01*
X044372Y007077D02*
X044669Y007077D01*
X044779Y007235D02*
X044014Y007235D01*
X043976Y007235D02*
X043211Y007235D01*
X043211Y007077D02*
X043618Y007077D01*
X043655Y006918D02*
X043182Y006918D01*
X043013Y006601D02*
X042623Y006601D01*
X042465Y006443D02*
X042854Y006443D01*
X042696Y006284D02*
X042306Y006284D01*
X042148Y006125D02*
X042537Y006125D01*
X042379Y005967D02*
X041989Y005967D01*
X041831Y005808D02*
X042220Y005808D01*
X042061Y005650D02*
X041672Y005650D01*
X041514Y005491D02*
X041903Y005491D01*
X041744Y005333D02*
X041355Y005333D01*
X041197Y005174D02*
X041586Y005174D01*
X041427Y005016D02*
X041125Y005016D01*
X041125Y004857D02*
X041269Y004857D01*
X041744Y004540D02*
X045963Y004540D01*
X045963Y004699D02*
X041902Y004699D01*
X042061Y004857D02*
X045963Y004857D01*
X045963Y005016D02*
X045547Y005016D01*
X045553Y005174D02*
X045963Y005174D01*
X045963Y005333D02*
X045553Y005333D01*
X045553Y005491D02*
X045963Y005491D01*
X045963Y005650D02*
X045573Y005650D01*
X045573Y005808D02*
X045963Y005808D01*
X045963Y005967D02*
X045573Y005967D01*
X045573Y006125D02*
X045963Y006125D01*
X045963Y006284D02*
X045536Y006284D01*
X045614Y006443D02*
X045963Y006443D01*
X045963Y006601D02*
X045773Y006601D01*
X045850Y006760D02*
X045963Y006760D01*
X045963Y006918D02*
X045850Y006918D01*
X045850Y007077D02*
X045963Y007077D01*
X045963Y007235D02*
X045850Y007235D01*
X045850Y007394D02*
X045963Y007394D01*
X045963Y007552D02*
X045850Y007552D01*
X045777Y007711D02*
X045963Y007711D01*
X045963Y007869D02*
X045618Y007869D01*
X045573Y008028D02*
X045963Y008028D01*
X045963Y008186D02*
X045573Y008186D01*
X045456Y008345D02*
X045881Y008345D01*
X045745Y008504D02*
X045423Y008504D01*
X045278Y008662D02*
X045577Y008662D01*
X045176Y008369D02*
X045176Y007916D01*
X045570Y007522D01*
X045570Y006794D01*
X045176Y006400D01*
X045176Y005947D01*
X044779Y005967D02*
X043170Y005967D01*
X043012Y005808D02*
X044779Y005808D01*
X044779Y005650D02*
X042853Y005650D01*
X042695Y005491D02*
X044799Y005491D01*
X044799Y005333D02*
X042536Y005333D01*
X042378Y005174D02*
X044799Y005174D01*
X044805Y005016D02*
X042219Y005016D01*
X041585Y004381D02*
X045963Y004381D01*
X045963Y004223D02*
X041519Y004223D01*
X041519Y004064D02*
X045963Y004064D01*
X045963Y003906D02*
X042854Y003906D01*
X042963Y003747D02*
X045963Y003747D01*
X045963Y003589D02*
X043298Y003589D01*
X043451Y003430D02*
X045963Y003430D01*
X045963Y003272D02*
X045855Y003272D01*
X045284Y003272D02*
X043506Y003272D01*
X043501Y003113D02*
X045140Y003113D01*
X045074Y002955D02*
X043430Y002955D01*
X043365Y002796D02*
X045074Y002796D01*
X045124Y002637D02*
X043464Y002637D01*
X043486Y002479D02*
X045247Y002479D01*
X045892Y002479D02*
X045963Y002479D01*
X045963Y002320D02*
X043444Y002320D01*
X043309Y002162D02*
X045963Y002162D01*
X045963Y002003D02*
X042978Y002003D01*
X042891Y001845D02*
X045963Y001845D01*
X045963Y001686D02*
X042512Y001686D01*
X042353Y001528D02*
X045963Y001528D01*
X045963Y001369D02*
X037392Y001369D01*
X037233Y001211D02*
X045963Y001211D01*
X045962Y001052D02*
X037074Y001052D01*
X036908Y001282D02*
X037302Y001676D01*
X037302Y003250D01*
X038483Y004431D01*
X038483Y005278D01*
X038880Y005333D02*
X039287Y005333D01*
X039287Y005259D02*
X039287Y005038D01*
X039300Y004992D01*
X039323Y004951D01*
X039357Y004917D01*
X039398Y004894D01*
X039444Y004881D01*
X039646Y004881D01*
X039646Y005259D01*
X039287Y005259D01*
X039287Y005174D02*
X038880Y005174D01*
X038880Y005016D02*
X039293Y005016D01*
X039646Y005016D02*
X039683Y005016D01*
X039683Y005174D02*
X039646Y005174D01*
X040041Y005174D02*
X040172Y005174D01*
X040172Y005016D02*
X040035Y005016D01*
X040172Y004857D02*
X038763Y004857D01*
X038763Y004699D02*
X040172Y004699D01*
X040172Y004540D02*
X038763Y004540D01*
X038763Y004381D02*
X040172Y004381D01*
X040172Y004223D02*
X038671Y004223D01*
X038512Y004064D02*
X040172Y004064D01*
X040172Y003906D02*
X038353Y003906D01*
X038195Y003747D02*
X040172Y003747D01*
X040172Y003589D02*
X038036Y003589D01*
X038198Y003272D02*
X037719Y003272D01*
X037582Y003113D02*
X038053Y003113D01*
X037988Y002955D02*
X037582Y002955D01*
X037582Y002796D02*
X037988Y002796D01*
X038038Y002637D02*
X037582Y002637D01*
X037582Y002479D02*
X038160Y002479D01*
X036908Y002069D02*
X036908Y006006D01*
X038089Y007187D01*
X038089Y007246D01*
X037693Y007235D02*
X036927Y007235D01*
X036927Y007228D02*
X037285Y007228D01*
X037285Y007006D01*
X037273Y006960D01*
X037249Y006919D01*
X037216Y006886D01*
X037175Y006862D01*
X037129Y006850D01*
X036927Y006850D01*
X036927Y007228D01*
X036890Y007228D02*
X036890Y006850D01*
X036688Y006850D01*
X036642Y006862D01*
X036601Y006886D01*
X036567Y006919D01*
X036544Y006960D01*
X036531Y007006D01*
X036531Y007228D01*
X036890Y007228D01*
X036890Y007235D02*
X036134Y007235D01*
X036124Y007394D02*
X036531Y007394D01*
X036555Y007552D02*
X036118Y007552D01*
X035727Y007246D02*
X036121Y006853D01*
X036121Y004431D01*
X035727Y004038D01*
X034546Y004038D01*
X034152Y003644D01*
X034152Y003250D01*
X034546Y002857D01*
X034605Y002857D01*
X034224Y002637D02*
X032754Y002637D01*
X032913Y002796D02*
X034169Y002796D01*
X034052Y002955D02*
X033071Y002955D01*
X033230Y003113D02*
X033906Y003113D01*
X033872Y003272D02*
X033389Y003272D01*
X033547Y003430D02*
X033872Y003430D01*
X033872Y003589D02*
X033706Y003589D01*
X033864Y003747D02*
X033892Y003747D01*
X033759Y004038D02*
X033759Y004628D01*
X034152Y004818D02*
X034129Y004875D01*
X034006Y004998D01*
X033846Y005065D01*
X033672Y005065D01*
X033512Y004998D01*
X033389Y004875D01*
X033365Y004818D01*
X033341Y004875D01*
X033218Y004998D01*
X033058Y005065D01*
X032885Y005065D01*
X032724Y004998D01*
X032602Y004875D01*
X032578Y004818D01*
X032554Y004875D01*
X032431Y004998D01*
X032271Y005065D01*
X032097Y005065D01*
X031937Y004998D01*
X031814Y004875D01*
X031790Y004818D01*
X031766Y004875D01*
X031644Y004998D01*
X031483Y005065D01*
X031310Y005065D01*
X031283Y005053D01*
X031283Y005188D01*
X031310Y005176D01*
X031483Y005176D01*
X031644Y005243D01*
X031766Y005365D01*
X031790Y005423D01*
X031814Y005365D01*
X031937Y005243D01*
X032097Y005176D01*
X032271Y005176D01*
X032431Y005243D01*
X032554Y005365D01*
X032588Y005448D01*
X032615Y005394D01*
X032654Y005341D01*
X032700Y005295D01*
X032753Y005257D01*
X032812Y005227D01*
X032874Y005207D01*
X032939Y005196D01*
X032971Y005196D01*
X032971Y005612D01*
X032971Y005612D01*
X032971Y005196D01*
X033004Y005196D01*
X033069Y005207D01*
X033131Y005227D01*
X033189Y005257D01*
X033242Y005295D01*
X033289Y005341D01*
X033327Y005394D01*
X033357Y005453D01*
X033365Y005477D01*
X033373Y005453D01*
X033403Y005394D01*
X033441Y005341D01*
X033488Y005295D01*
X033541Y005257D01*
X033599Y005227D01*
X033661Y005207D01*
X033726Y005196D01*
X033759Y005196D01*
X033791Y005196D01*
X033856Y005207D01*
X033919Y005227D01*
X033977Y005257D01*
X034030Y005295D01*
X034076Y005341D01*
X034115Y005394D01*
X034142Y005448D01*
X034176Y005365D01*
X034299Y005243D01*
X034459Y005176D01*
X034633Y005176D01*
X034793Y005243D01*
X034916Y005365D01*
X034940Y005423D01*
X034964Y005365D01*
X035086Y005243D01*
X035247Y005176D01*
X035420Y005176D01*
X035581Y005243D01*
X035703Y005365D01*
X035770Y005526D01*
X035770Y005699D01*
X035703Y005860D01*
X035614Y005949D01*
X035614Y006830D01*
X035748Y006830D01*
X035841Y006737D01*
X035841Y004547D01*
X035723Y004430D01*
X035770Y004542D01*
X035770Y004715D01*
X035703Y004875D01*
X035581Y004998D01*
X035420Y005065D01*
X035247Y005065D01*
X035086Y004998D01*
X034964Y004875D01*
X034940Y004818D01*
X034916Y004875D01*
X034793Y004998D01*
X034633Y005065D01*
X034459Y005065D01*
X034299Y004998D01*
X034176Y004875D01*
X034152Y004818D01*
X034136Y004857D02*
X034169Y004857D01*
X034341Y005016D02*
X033964Y005016D01*
X033759Y005196D02*
X033759Y005612D01*
X033759Y005612D01*
X033759Y005196D01*
X033759Y005333D02*
X033759Y005333D01*
X033759Y005491D02*
X033759Y005491D01*
X033758Y005612D02*
X033388Y005612D01*
X032972Y005612D01*
X032972Y005613D01*
X033388Y005613D01*
X033758Y005613D01*
X033758Y005612D01*
X033759Y005650D02*
X033759Y005650D01*
X033759Y005808D02*
X033759Y005808D01*
X033759Y005967D02*
X033759Y005967D01*
X033979Y005967D02*
X034284Y005967D01*
X034155Y005808D02*
X034126Y005808D01*
X033538Y005967D02*
X033192Y005967D01*
X033339Y005808D02*
X033391Y005808D01*
X032971Y005808D02*
X032971Y005808D01*
X032971Y005650D02*
X032971Y005650D01*
X032971Y005613D02*
X032971Y006029D01*
X032971Y005613D01*
X032971Y005613D01*
X032971Y005491D02*
X032971Y005491D01*
X032971Y005333D02*
X032971Y005333D01*
X032663Y005333D02*
X032521Y005333D01*
X032389Y005016D02*
X032767Y005016D01*
X032594Y004857D02*
X032561Y004857D01*
X033176Y005016D02*
X033554Y005016D01*
X033381Y004857D02*
X033349Y004857D01*
X033341Y004381D02*
X033389Y004381D01*
X033479Y004223D02*
X033132Y004223D01*
X033389Y004064D02*
X030495Y004064D01*
X030464Y003906D02*
X033231Y003906D01*
X033072Y003747D02*
X030321Y003747D01*
X030162Y003589D02*
X032914Y003589D01*
X032755Y003430D02*
X030004Y003430D01*
X029845Y003272D02*
X031111Y003272D01*
X030967Y003113D02*
X029687Y003113D01*
X029501Y002955D02*
X030901Y002955D01*
X030901Y002796D02*
X029191Y002796D01*
X029290Y002637D02*
X030951Y002637D01*
X031074Y002479D02*
X029313Y002479D01*
X029313Y002470D02*
X029313Y002502D01*
X028897Y002502D01*
X028897Y002086D01*
X028929Y002086D01*
X028994Y002096D01*
X029056Y002117D01*
X029115Y002146D01*
X029168Y002185D01*
X029214Y002231D01*
X029252Y002284D01*
X029282Y002343D01*
X029302Y002405D01*
X029313Y002470D01*
X029271Y002320D02*
X034425Y002320D01*
X034440Y002162D02*
X029136Y002162D01*
X028897Y002162D02*
X028896Y002162D01*
X028896Y002320D02*
X028897Y002320D01*
X028896Y002479D02*
X028897Y002479D01*
X028904Y002498D02*
X028247Y002857D01*
X028385Y003585D01*
X028384Y003585D01*
X028384Y004001D01*
X028352Y004001D01*
X028287Y003991D01*
X028225Y003971D01*
X028167Y003941D01*
X028114Y003902D01*
X028067Y003856D01*
X028029Y003803D01*
X028024Y003795D01*
X028022Y003797D01*
X027861Y003864D01*
X027688Y003864D01*
X027651Y003849D01*
X027062Y004437D01*
X027143Y004437D01*
X027286Y004496D01*
X027395Y004605D01*
X027454Y004748D01*
X027454Y004902D01*
X027395Y005045D01*
X027346Y005094D01*
X027346Y005497D01*
X027575Y005726D01*
X027822Y005726D01*
X027811Y005699D01*
X027811Y005526D01*
X027877Y005365D01*
X028000Y005243D01*
X028160Y005176D01*
X028334Y005176D01*
X028494Y005243D01*
X028617Y005365D01*
X028641Y005423D01*
X028665Y005365D01*
X028787Y005243D01*
X028948Y005176D01*
X029121Y005176D01*
X029148Y005188D01*
X029148Y005053D01*
X029121Y005065D01*
X028948Y005065D01*
X028787Y004998D01*
X028665Y004875D01*
X028641Y004818D01*
X028617Y004875D01*
X028494Y004998D01*
X028334Y005065D01*
X028160Y005065D01*
X028000Y004998D01*
X027877Y004875D01*
X027811Y004715D01*
X027811Y004542D01*
X027877Y004381D01*
X028000Y004259D01*
X028160Y004192D01*
X028334Y004192D01*
X028494Y004259D01*
X028617Y004381D01*
X028641Y004439D01*
X028665Y004381D01*
X028787Y004259D01*
X028948Y004192D01*
X029121Y004192D01*
X029281Y004259D01*
X029404Y004381D01*
X029425Y004432D01*
X029435Y004422D01*
X029452Y004381D01*
X029575Y004259D01*
X029735Y004192D01*
X029909Y004192D01*
X029935Y004203D01*
X029935Y004154D01*
X029273Y003491D01*
X029233Y003491D01*
X029144Y003581D01*
X028983Y003647D01*
X028810Y003647D01*
X028797Y003642D01*
X028791Y003682D01*
X028770Y003745D01*
X028741Y003803D01*
X028702Y003856D01*
X028656Y003902D01*
X028603Y003941D01*
X028544Y003971D01*
X028482Y003991D01*
X028417Y004001D01*
X028385Y004001D01*
X028385Y003585D01*
X028384Y003589D02*
X028385Y003589D01*
X028384Y003747D02*
X028385Y003747D01*
X028384Y003906D02*
X028385Y003906D01*
X028651Y003906D02*
X029688Y003906D01*
X029846Y004064D02*
X027435Y004064D01*
X027594Y003906D02*
X028118Y003906D01*
X028769Y003747D02*
X029529Y003747D01*
X029370Y003589D02*
X029124Y003589D01*
X028897Y003211D02*
X029389Y003211D01*
X030215Y004038D01*
X030215Y007128D01*
X031003Y007916D01*
X030606Y007915D02*
X030606Y008215D01*
X030723Y008332D01*
X031283Y008332D01*
X031400Y008215D01*
X031400Y007616D01*
X031364Y007581D01*
X031400Y007546D01*
X031400Y007526D01*
X032181Y007526D01*
X032181Y007546D01*
X032232Y007597D01*
X032213Y007630D01*
X032201Y007675D01*
X032201Y007897D01*
X032559Y007897D01*
X032559Y007934D01*
X032201Y007934D01*
X032201Y008156D01*
X032213Y008202D01*
X032237Y008243D01*
X032270Y008276D01*
X032311Y008300D01*
X032357Y008312D01*
X032559Y008312D01*
X032559Y007934D01*
X032596Y007934D01*
X032954Y007934D01*
X032954Y008156D01*
X032942Y008202D01*
X032919Y008243D01*
X032885Y008276D01*
X032844Y008300D01*
X032798Y008312D01*
X032596Y008312D01*
X032596Y007934D01*
X032596Y007897D01*
X032954Y007897D01*
X032954Y007675D01*
X032942Y007630D01*
X032923Y007597D01*
X032974Y007546D01*
X032974Y006947D01*
X032857Y006830D01*
X032298Y006830D01*
X032181Y006947D01*
X032181Y006966D01*
X031400Y006966D01*
X031400Y006947D01*
X031283Y006830D01*
X031283Y006038D01*
X031310Y006049D01*
X031437Y006049D01*
X031947Y006559D01*
X032025Y006637D01*
X032128Y006680D01*
X032855Y006680D01*
X033006Y006831D01*
X033006Y008234D01*
X033006Y008345D01*
X029728Y008345D01*
X029591Y008402D02*
X029265Y008402D01*
X028963Y008277D01*
X028802Y008116D01*
X028802Y008542D01*
X028760Y008645D01*
X028681Y008724D01*
X028643Y008762D01*
X033363Y008762D01*
X033049Y008448D01*
X033006Y008345D01*
X033006Y008186D02*
X032946Y008186D01*
X032954Y008028D02*
X033006Y008028D01*
X033006Y007869D02*
X032954Y007869D01*
X032954Y007711D02*
X033006Y007711D01*
X033006Y007552D02*
X032968Y007552D01*
X032974Y007394D02*
X033006Y007394D01*
X033006Y007235D02*
X032974Y007235D01*
X032974Y007077D02*
X033006Y007077D01*
X033006Y006918D02*
X032946Y006918D01*
X032935Y006760D02*
X031283Y006760D01*
X031283Y006601D02*
X031989Y006601D01*
X031831Y006443D02*
X031283Y006443D01*
X031283Y006284D02*
X031672Y006284D01*
X031513Y006125D02*
X031283Y006125D01*
X031397Y005613D02*
X032184Y006400D01*
X032971Y006400D01*
X033286Y006715D01*
X033286Y008290D01*
X033759Y008762D01*
X044782Y008762D01*
X045176Y008369D01*
X044804Y008345D02*
X034452Y008345D01*
X034707Y008186D02*
X035330Y008186D01*
X035330Y008028D02*
X034855Y008028D01*
X034921Y007869D02*
X035226Y007869D01*
X035084Y007711D02*
X034973Y007711D01*
X034973Y007552D02*
X035054Y007552D01*
X035054Y007394D02*
X034963Y007394D01*
X034897Y007235D02*
X035054Y007235D01*
X035054Y007077D02*
X034808Y007077D01*
X034650Y006918D02*
X035054Y006918D01*
X035054Y006760D02*
X033566Y006760D01*
X033566Y006918D02*
X033655Y006918D01*
X033542Y006601D02*
X035054Y006601D01*
X035054Y006443D02*
X033410Y006443D01*
X033251Y006284D02*
X035054Y006284D01*
X035054Y006125D02*
X033040Y006125D01*
X032971Y005967D02*
X032971Y005967D01*
X032751Y005967D02*
X032446Y005967D01*
X032575Y005808D02*
X032604Y005808D01*
X033280Y005333D02*
X033450Y005333D01*
X034067Y005333D02*
X034209Y005333D01*
X034751Y005016D02*
X035129Y005016D01*
X034956Y004857D02*
X034924Y004857D01*
X035538Y005016D02*
X035841Y005016D01*
X035841Y005174D02*
X031283Y005174D01*
X031003Y005022D02*
X031003Y007246D01*
X032578Y007246D01*
X032187Y007552D02*
X031393Y007552D01*
X031400Y007711D02*
X032201Y007711D01*
X032201Y007869D02*
X031400Y007869D01*
X031400Y008028D02*
X032201Y008028D01*
X032209Y008186D02*
X031400Y008186D01*
X030606Y008186D02*
X029983Y008186D01*
X029893Y008277D02*
X030124Y008046D01*
X030249Y007744D01*
X030249Y007557D01*
X030606Y007915D01*
X030561Y007869D02*
X030197Y007869D01*
X030249Y007711D02*
X030402Y007711D01*
X030606Y008028D02*
X030131Y008028D01*
X029893Y008277D02*
X029591Y008402D01*
X029128Y008345D02*
X028802Y008345D01*
X028802Y008186D02*
X028873Y008186D01*
X028802Y008504D02*
X033104Y008504D01*
X033263Y008662D02*
X028743Y008662D01*
X028681Y008724D02*
X028681Y008724D01*
X028523Y008487D02*
X028247Y008762D01*
X025885Y008762D01*
X025491Y008369D01*
X025491Y007916D01*
X024310Y007916D01*
X024310Y008369D01*
X023916Y008762D01*
X021160Y008762D01*
X020767Y008369D01*
X020767Y007916D01*
X021948Y007916D01*
X022345Y007869D02*
X023913Y007869D01*
X023913Y007711D02*
X022345Y007711D01*
X022345Y008028D02*
X023913Y008028D01*
X023913Y008186D02*
X022345Y008186D01*
X021551Y007636D02*
X021551Y007616D01*
X021586Y007581D01*
X021551Y007546D01*
X021551Y006947D01*
X021668Y006830D01*
X021668Y003982D01*
X021710Y003879D01*
X021789Y003800D01*
X021975Y003615D01*
X021897Y003647D01*
X021723Y003647D01*
X021710Y003642D01*
X021704Y003682D01*
X021684Y003745D01*
X021654Y003803D01*
X021616Y003856D01*
X021569Y003902D01*
X021516Y003941D01*
X021458Y003971D01*
X021396Y003991D01*
X021331Y004001D01*
X021298Y004001D01*
X021265Y004001D01*
X021201Y003991D01*
X021138Y003971D01*
X021080Y003941D01*
X021027Y003902D01*
X020981Y003856D01*
X020942Y003803D01*
X020925Y003770D01*
X020906Y003784D01*
X020848Y003813D01*
X020785Y003834D01*
X020721Y003844D01*
X020688Y003844D01*
X020688Y003428D01*
X020688Y003428D01*
X020688Y003844D01*
X020655Y003844D01*
X020590Y003834D01*
X020528Y003813D01*
X020470Y003784D01*
X020417Y003745D01*
X020370Y003699D01*
X020332Y003646D01*
X020302Y003587D01*
X020282Y003525D01*
X020272Y003460D01*
X020272Y003428D01*
X020687Y003428D01*
X020687Y003427D01*
X020272Y003427D01*
X020272Y003395D01*
X020279Y003346D01*
X020259Y003366D01*
X020259Y004316D01*
X020925Y004982D01*
X021004Y005060D01*
X021047Y005163D01*
X021047Y006131D01*
X021096Y006180D01*
X021155Y006323D01*
X021155Y006477D01*
X021096Y006620D01*
X021047Y006669D01*
X021047Y006830D01*
X021163Y006947D01*
X021163Y007546D01*
X021128Y007581D01*
X021163Y007616D01*
X021163Y007636D01*
X021551Y007636D01*
X021557Y007552D02*
X021157Y007552D01*
X021163Y007394D02*
X021551Y007394D01*
X021551Y007235D02*
X021163Y007235D01*
X021163Y007077D02*
X021551Y007077D01*
X021580Y006918D02*
X021134Y006918D01*
X021047Y006760D02*
X021668Y006760D01*
X021668Y006601D02*
X021103Y006601D01*
X021155Y006443D02*
X021668Y006443D01*
X021668Y006284D02*
X021139Y006284D01*
X021047Y006125D02*
X021668Y006125D01*
X021668Y005967D02*
X021047Y005967D01*
X021047Y005808D02*
X021668Y005808D01*
X021668Y005650D02*
X021047Y005650D01*
X021047Y005491D02*
X021668Y005491D01*
X021668Y005333D02*
X021047Y005333D01*
X021047Y005174D02*
X021668Y005174D01*
X021668Y005016D02*
X020959Y005016D01*
X020801Y004857D02*
X021668Y004857D01*
X021668Y004699D02*
X020642Y004699D01*
X020484Y004540D02*
X021668Y004540D01*
X021668Y004381D02*
X020325Y004381D01*
X020259Y004223D02*
X021668Y004223D01*
X021668Y004064D02*
X020259Y004064D01*
X020259Y003906D02*
X021032Y003906D01*
X021298Y003906D02*
X021298Y003906D01*
X021298Y004001D02*
X021298Y003585D01*
X021298Y003585D01*
X021298Y004001D01*
X021298Y003747D02*
X021298Y003747D01*
X021298Y003589D02*
X021298Y003589D01*
X021565Y003906D02*
X021699Y003906D01*
X021683Y003747D02*
X021842Y003747D01*
X021948Y004038D02*
X021948Y007246D01*
X022523Y007246D01*
X022911Y007235D02*
X023913Y007235D01*
X023913Y007077D02*
X022872Y007077D01*
X022743Y006918D02*
X023942Y006918D01*
X024342Y006760D02*
X022228Y006760D01*
X022228Y006601D02*
X024500Y006601D01*
X024466Y006635D02*
X024466Y006635D01*
X024704Y006794D02*
X025491Y006794D01*
X025885Y006400D01*
X025885Y003644D01*
X027243Y002286D01*
X027774Y002286D01*
X027519Y002857D02*
X027460Y002857D01*
X026278Y004038D01*
X026278Y006459D01*
X025491Y007246D01*
X026082Y007837D01*
X026082Y007975D01*
X026672Y007916D02*
X026810Y008054D01*
X027853Y008054D01*
X027853Y008369D01*
X027853Y008054D02*
X027853Y007916D01*
X027456Y007774D02*
X027069Y007774D01*
X027069Y007616D01*
X027034Y007581D01*
X027069Y007546D01*
X027069Y006947D01*
X026952Y006830D01*
X026952Y005895D01*
X027222Y006165D01*
X027301Y006244D01*
X027404Y006286D01*
X028585Y006286D01*
X028696Y006286D01*
X028792Y006247D01*
X028364Y006674D01*
X028285Y006753D01*
X028243Y006856D01*
X028243Y007609D01*
X028199Y007565D01*
X028218Y007532D01*
X028230Y007487D01*
X028230Y007265D01*
X027872Y007265D01*
X027872Y007228D01*
X028230Y007228D01*
X028230Y007006D01*
X028218Y006960D01*
X028194Y006919D01*
X028161Y006886D01*
X028120Y006862D01*
X028074Y006850D01*
X027872Y006850D01*
X027872Y007228D01*
X027835Y007228D01*
X027835Y006850D01*
X027633Y006850D01*
X027587Y006862D01*
X027546Y006886D01*
X027512Y006919D01*
X027489Y006960D01*
X027476Y007006D01*
X027476Y007228D01*
X027835Y007228D01*
X027835Y007265D01*
X027476Y007265D01*
X027476Y007487D01*
X027489Y007532D01*
X027508Y007565D01*
X027456Y007616D01*
X027456Y007774D01*
X027456Y007711D02*
X027069Y007711D01*
X027062Y007552D02*
X027500Y007552D01*
X027476Y007394D02*
X027069Y007394D01*
X027069Y007235D02*
X027835Y007235D01*
X027872Y007235D02*
X028243Y007235D01*
X028230Y007077D02*
X028243Y007077D01*
X028243Y006918D02*
X028193Y006918D01*
X028282Y006760D02*
X026952Y006760D01*
X026952Y006601D02*
X028437Y006601D01*
X028596Y006443D02*
X026952Y006443D01*
X026952Y006284D02*
X027398Y006284D01*
X027183Y006125D02*
X026952Y006125D01*
X026952Y005967D02*
X027024Y005967D01*
X027066Y005613D02*
X027460Y006006D01*
X028641Y006006D01*
X029034Y005613D01*
X028697Y005333D02*
X028584Y005333D01*
X028452Y005016D02*
X028830Y005016D01*
X028657Y004857D02*
X028624Y004857D01*
X028042Y005016D02*
X027407Y005016D01*
X027454Y004857D02*
X027870Y004857D01*
X027811Y004699D02*
X027433Y004699D01*
X027329Y004540D02*
X027811Y004540D01*
X027877Y004381D02*
X027118Y004381D01*
X027277Y004223D02*
X028086Y004223D01*
X028408Y004223D02*
X028873Y004223D01*
X028664Y004381D02*
X028617Y004381D01*
X029195Y004223D02*
X029661Y004223D01*
X029452Y004381D02*
X029404Y004381D01*
X029625Y004628D02*
X029822Y004628D01*
X029625Y004628D02*
X029428Y004825D01*
X029428Y006006D01*
X028523Y006912D01*
X028523Y008487D01*
X028243Y007552D02*
X028206Y007552D01*
X028230Y007394D02*
X028243Y007394D01*
X027872Y007077D02*
X027835Y007077D01*
X027835Y006918D02*
X027872Y006918D01*
X027514Y006918D02*
X027040Y006918D01*
X027069Y007077D02*
X027476Y007077D01*
X026672Y007246D02*
X026672Y004431D01*
X027676Y003428D01*
X027774Y003428D01*
X025866Y002479D02*
X024633Y002479D01*
X024590Y002437D02*
X024730Y002576D01*
X024805Y002758D01*
X024805Y002955D01*
X024730Y003137D01*
X024590Y003277D01*
X024408Y003352D01*
X024211Y003352D01*
X024029Y003277D01*
X023890Y003137D01*
X023815Y002955D01*
X023815Y002758D01*
X023890Y002576D01*
X024029Y002437D01*
X024211Y002361D01*
X024408Y002361D01*
X024590Y002437D01*
X024755Y002637D02*
X025708Y002637D01*
X025549Y002796D02*
X024805Y002796D01*
X024805Y002955D02*
X025391Y002955D01*
X025232Y003113D02*
X024740Y003113D01*
X024595Y003272D02*
X025074Y003272D01*
X024915Y003430D02*
X022951Y003430D01*
X023015Y003272D02*
X024024Y003272D01*
X023880Y003113D02*
X023015Y003113D01*
X023015Y002955D02*
X023815Y002955D01*
X023815Y002796D02*
X023015Y002796D01*
X023015Y002637D02*
X023865Y002637D01*
X023987Y002479D02*
X023015Y002479D01*
X022979Y002320D02*
X026025Y002320D01*
X026184Y002162D02*
X022830Y002162D01*
X022671Y002003D02*
X026342Y002003D01*
X026501Y001845D02*
X022513Y001845D01*
X022354Y001686D02*
X026659Y001686D01*
X026818Y001528D02*
X022196Y001528D01*
X021948Y001676D02*
X021751Y001676D01*
X021298Y002128D01*
X021734Y002093D02*
X021777Y002086D01*
X021810Y002086D01*
X021843Y002086D01*
X021907Y002096D01*
X021970Y002117D01*
X022017Y002141D01*
X021849Y001973D01*
X021734Y002088D01*
X021734Y002093D01*
X021810Y002086D02*
X021810Y002502D01*
X021810Y002086D01*
X021810Y002162D02*
X021810Y002162D01*
X021810Y002320D02*
X021810Y002320D01*
X021810Y002479D02*
X021810Y002479D01*
X021810Y002502D02*
X021810Y002502D01*
X021810Y002503D01*
X022226Y002503D01*
X022226Y002535D01*
X022216Y002600D01*
X022196Y002662D01*
X022166Y002720D01*
X022127Y002774D01*
X022081Y002820D01*
X022054Y002840D01*
X022057Y002841D01*
X022180Y002964D01*
X022246Y003124D01*
X022246Y003298D01*
X022214Y003376D01*
X022455Y003134D01*
X022455Y002579D01*
X022171Y002295D01*
X022196Y002343D01*
X022216Y002405D01*
X022226Y002470D01*
X022226Y002502D01*
X021810Y002502D01*
X022184Y002320D02*
X022197Y002320D01*
X022226Y002479D02*
X022355Y002479D01*
X022455Y002637D02*
X022204Y002637D01*
X022105Y002796D02*
X022455Y002796D01*
X022455Y002955D02*
X022170Y002955D01*
X022241Y003113D02*
X022455Y003113D01*
X022318Y003272D02*
X022246Y003272D01*
X022735Y003250D02*
X021948Y004038D01*
X022228Y004223D02*
X024123Y004223D01*
X024281Y004064D02*
X022317Y004064D01*
X022476Y003906D02*
X024440Y003906D01*
X024598Y003747D02*
X022634Y003747D01*
X022793Y003589D02*
X024757Y003589D01*
X025231Y003906D02*
X025605Y003906D01*
X025605Y004064D02*
X025073Y004064D01*
X024914Y004223D02*
X025605Y004223D01*
X025605Y004381D02*
X024756Y004381D01*
X024597Y004540D02*
X025605Y004540D01*
X025605Y004699D02*
X024439Y004699D01*
X024280Y004857D02*
X025605Y004857D01*
X025605Y005016D02*
X025468Y005016D01*
X025474Y005038D02*
X025474Y005259D01*
X025116Y005259D01*
X025116Y004881D01*
X025318Y004881D01*
X025364Y004894D01*
X025405Y004917D01*
X025438Y004951D01*
X025462Y004992D01*
X025474Y005038D01*
X025474Y005174D02*
X025605Y005174D01*
X025605Y005333D02*
X025474Y005333D01*
X025474Y005296D02*
X025474Y005518D01*
X025462Y005564D01*
X025443Y005597D01*
X025494Y005648D01*
X025494Y006247D01*
X025605Y006284D02*
X025605Y003700D01*
X025605Y003588D01*
X025644Y003493D01*
X024236Y004901D01*
X024313Y004979D01*
X024313Y005577D01*
X024278Y005613D01*
X024285Y005620D01*
X024287Y005618D01*
X024430Y005559D01*
X024584Y005559D01*
X024727Y005618D01*
X024728Y005620D01*
X024752Y005597D01*
X024733Y005564D01*
X024720Y005518D01*
X024720Y005296D01*
X025079Y005296D01*
X025079Y005259D01*
X025116Y005259D01*
X025116Y005296D01*
X025474Y005296D01*
X025474Y005491D02*
X025605Y005491D01*
X025605Y005650D02*
X025494Y005650D01*
X025494Y005808D02*
X025605Y005808D01*
X025605Y005967D02*
X025494Y005967D01*
X025494Y006125D02*
X025605Y006125D01*
X025097Y005947D02*
X024507Y005947D01*
X023916Y005947D01*
X023519Y005967D02*
X022228Y005967D01*
X022228Y006125D02*
X023519Y006125D01*
X023557Y006284D02*
X022228Y006284D01*
X022228Y006443D02*
X025446Y006443D01*
X024738Y006284D02*
X024708Y006284D01*
X024306Y006284D02*
X024276Y006284D01*
X024704Y006794D02*
X024310Y007187D01*
X024310Y007246D01*
X024369Y007187D01*
X024900Y007187D01*
X023913Y007394D02*
X022882Y007394D01*
X022765Y007552D02*
X023920Y007552D01*
X023937Y008345D02*
X021139Y008345D01*
X020520Y008504D02*
X018622Y008504D01*
X018487Y008345D02*
X020487Y008345D01*
X020664Y008662D02*
X018791Y008662D01*
X018404Y008186D02*
X019189Y008186D01*
X019189Y008028D02*
X018404Y008028D01*
X018404Y007869D02*
X019189Y007869D01*
X019189Y007711D02*
X018404Y007711D01*
X018404Y007552D02*
X019195Y007552D01*
X019189Y007394D02*
X018404Y007394D01*
X018404Y007235D02*
X019189Y007235D01*
X019189Y007077D02*
X018404Y007077D01*
X018404Y006918D02*
X019218Y006918D01*
X019306Y006760D02*
X018404Y006760D01*
X018404Y006601D02*
X019306Y006601D01*
X019306Y006443D02*
X018404Y006443D01*
X018404Y006284D02*
X019306Y006284D01*
X019306Y006125D02*
X018404Y006125D01*
X018404Y005967D02*
X019306Y005967D01*
X019306Y005808D02*
X018404Y005808D01*
X018404Y005650D02*
X019306Y005650D01*
X019306Y005491D02*
X018404Y005491D01*
X018404Y005333D02*
X019306Y005333D01*
X019306Y005174D02*
X018404Y005174D01*
X018404Y005016D02*
X019306Y005016D01*
X019306Y004857D02*
X018404Y004857D01*
X018404Y004699D02*
X019304Y004699D01*
X019210Y004540D02*
X018404Y004540D01*
X018404Y004381D02*
X019197Y004381D01*
X019252Y004223D02*
X018404Y004223D01*
X018404Y004064D02*
X019306Y004064D01*
X019306Y003906D02*
X018404Y003906D01*
X018404Y003747D02*
X019306Y003747D01*
X019306Y003589D02*
X018404Y003589D01*
X018404Y003430D02*
X019306Y003430D01*
X019306Y003272D02*
X018404Y003272D01*
X018404Y003113D02*
X019306Y003113D01*
X019306Y002955D02*
X018404Y002955D01*
X018404Y002796D02*
X019308Y002796D01*
X019409Y002637D02*
X018404Y002637D01*
X018404Y002479D02*
X019567Y002479D01*
X019726Y002320D02*
X018404Y002320D01*
X018404Y002162D02*
X019884Y002162D01*
X020156Y002286D02*
X019586Y002857D01*
X019586Y004038D01*
X019586Y004431D01*
X019586Y007246D01*
X020767Y007246D02*
X020767Y006400D01*
X020767Y005219D01*
X019979Y004431D01*
X019979Y003250D01*
X020373Y002857D01*
X020432Y002857D01*
X020688Y002286D02*
X020156Y002286D01*
X020353Y002003D02*
X018404Y002003D01*
X018404Y001845D02*
X020965Y001845D01*
X021344Y001686D02*
X018404Y001686D01*
X018404Y001528D02*
X021503Y001528D01*
X021948Y001676D02*
X022735Y002463D01*
X022735Y003250D01*
X020688Y003430D02*
X020688Y003430D01*
X020688Y003589D02*
X020688Y003589D01*
X020688Y003747D02*
X020688Y003747D01*
X020420Y003747D02*
X020259Y003747D01*
X020259Y003589D02*
X020303Y003589D01*
X020272Y003430D02*
X020259Y003430D01*
X022228Y004381D02*
X023964Y004381D01*
X023805Y004540D02*
X022228Y004540D01*
X022228Y004699D02*
X023666Y004699D01*
X023636Y004857D02*
X022228Y004857D01*
X022228Y005016D02*
X023519Y005016D01*
X023519Y005174D02*
X022228Y005174D01*
X022228Y005333D02*
X023519Y005333D01*
X023519Y005491D02*
X022228Y005491D01*
X022228Y005650D02*
X023519Y005650D01*
X023519Y005808D02*
X022228Y005808D01*
X023916Y005278D02*
X023916Y004825D01*
X027066Y001676D01*
X027932Y001676D01*
X028385Y002128D01*
X028805Y002003D02*
X034527Y002003D01*
X034581Y001845D02*
X028718Y001845D01*
X028339Y001686D02*
X034586Y001686D01*
X034692Y001528D02*
X028180Y001528D01*
X031397Y002857D02*
X032578Y002857D01*
X033759Y004038D01*
X032810Y004223D02*
X032345Y004223D01*
X032554Y004381D02*
X032601Y004381D01*
X032023Y004223D02*
X031558Y004223D01*
X031766Y004381D02*
X031814Y004381D01*
X031235Y004223D02*
X030770Y004223D01*
X030979Y004381D02*
X031027Y004381D01*
X030609Y004628D02*
X031003Y005022D01*
X031601Y005016D02*
X031979Y005016D01*
X031807Y004857D02*
X031774Y004857D01*
X031734Y005333D02*
X031847Y005333D01*
X029148Y005174D02*
X027346Y005174D01*
X027346Y005333D02*
X027910Y005333D01*
X027825Y005491D02*
X027346Y005491D01*
X027499Y005650D02*
X027811Y005650D01*
X027066Y005613D02*
X027066Y004825D01*
X025116Y005016D02*
X025079Y005016D01*
X025079Y004881D02*
X025079Y005259D01*
X024720Y005259D01*
X024720Y005038D01*
X024733Y004992D01*
X024756Y004951D01*
X024790Y004917D01*
X024831Y004894D01*
X024877Y004881D01*
X025079Y004881D01*
X024726Y005016D02*
X024313Y005016D01*
X024313Y005174D02*
X024720Y005174D01*
X024720Y005333D02*
X024313Y005333D01*
X024313Y005491D02*
X024720Y005491D01*
X025079Y005174D02*
X025116Y005174D01*
X025390Y003747D02*
X025605Y003747D01*
X025605Y003589D02*
X025549Y003589D01*
X021879Y002003D02*
X021819Y002003D01*
X018641Y000735D02*
X045727Y000735D01*
X045870Y000894D02*
X018497Y000894D01*
X018406Y001052D02*
X035167Y001052D01*
X035009Y001211D02*
X018404Y001211D01*
X018404Y001369D02*
X034850Y001369D01*
X034861Y001754D02*
X035334Y001282D01*
X036908Y001282D01*
X036515Y001676D02*
X035924Y001676D01*
X035471Y002128D01*
X035983Y002162D02*
X035983Y002162D01*
X035983Y002320D02*
X035983Y002320D01*
X035983Y002479D02*
X035983Y002479D01*
X036358Y002320D02*
X036628Y002320D01*
X036628Y002479D02*
X036399Y002479D01*
X036377Y002637D02*
X036628Y002637D01*
X036628Y002796D02*
X036278Y002796D01*
X036344Y002955D02*
X036628Y002955D01*
X036628Y003113D02*
X036415Y003113D01*
X036419Y003272D02*
X036628Y003272D01*
X036628Y003430D02*
X036364Y003430D01*
X036211Y003589D02*
X036628Y003589D01*
X036628Y003747D02*
X035876Y003747D01*
X035991Y003906D02*
X036628Y003906D01*
X036628Y004064D02*
X036150Y004064D01*
X036308Y004223D02*
X036628Y004223D01*
X036628Y004381D02*
X036401Y004381D01*
X036401Y004540D02*
X036628Y004540D01*
X036628Y004699D02*
X036401Y004699D01*
X036401Y004857D02*
X036628Y004857D01*
X036628Y005016D02*
X036401Y005016D01*
X036401Y005174D02*
X036628Y005174D01*
X036628Y005333D02*
X036401Y005333D01*
X036401Y005491D02*
X036628Y005491D01*
X036628Y005650D02*
X036401Y005650D01*
X036401Y005808D02*
X036628Y005808D01*
X036628Y005967D02*
X036401Y005967D01*
X036401Y006125D02*
X036655Y006125D01*
X036790Y006284D02*
X036401Y006284D01*
X036401Y006443D02*
X036949Y006443D01*
X037107Y006601D02*
X036401Y006601D01*
X036401Y006760D02*
X037266Y006760D01*
X037248Y006918D02*
X037424Y006918D01*
X037285Y007077D02*
X037583Y007077D01*
X037693Y007394D02*
X037285Y007394D01*
X037261Y007552D02*
X037699Y007552D01*
X037693Y007711D02*
X037305Y007711D01*
X037305Y007869D02*
X037693Y007869D01*
X037693Y008028D02*
X037305Y008028D01*
X037305Y008186D02*
X037693Y008186D01*
X038089Y007916D02*
X038680Y007916D01*
X038877Y007916D01*
X039271Y007916D01*
X039667Y007869D02*
X040055Y007869D01*
X040055Y007711D02*
X039667Y007711D01*
X039624Y007552D02*
X040061Y007552D01*
X040055Y007394D02*
X039647Y007394D01*
X039647Y007228D02*
X039289Y007228D01*
X039289Y006850D01*
X039491Y006850D01*
X039537Y006862D01*
X039578Y006886D01*
X039611Y006919D01*
X039635Y006960D01*
X039647Y007006D01*
X039647Y007228D01*
X039647Y007077D02*
X040055Y007077D01*
X040055Y007235D02*
X039289Y007235D01*
X039252Y007235D02*
X038486Y007235D01*
X038486Y007077D02*
X038894Y007077D01*
X038931Y006918D02*
X038457Y006918D01*
X038058Y006760D02*
X040172Y006760D01*
X040172Y006601D02*
X037899Y006601D01*
X037741Y006443D02*
X040172Y006443D01*
X040172Y006284D02*
X040024Y006284D01*
X040061Y006125D02*
X040172Y006125D01*
X040172Y005967D02*
X040061Y005967D01*
X040061Y005808D02*
X040172Y005808D01*
X040172Y005650D02*
X040061Y005650D01*
X040041Y005491D02*
X040172Y005491D01*
X040172Y005333D02*
X040041Y005333D01*
X040845Y005219D02*
X042814Y007187D01*
X042814Y007246D01*
X043211Y007394D02*
X043618Y007394D01*
X043642Y007552D02*
X043541Y007552D01*
X043268Y007552D02*
X043204Y007552D01*
X043976Y007077D02*
X044013Y007077D01*
X044013Y006918D02*
X043976Y006918D01*
X044335Y006918D02*
X044511Y006918D01*
X044352Y006760D02*
X042782Y006760D01*
X043208Y006400D02*
X044389Y006400D01*
X045176Y007187D01*
X045176Y007246D01*
X044779Y008028D02*
X044392Y008028D01*
X044392Y008186D02*
X044779Y008186D01*
X042307Y007077D02*
X042010Y007077D01*
X041972Y006918D02*
X042149Y006918D01*
X041990Y006760D02*
X040732Y006760D01*
X040732Y006601D02*
X041832Y006601D01*
X041673Y006443D02*
X040732Y006443D01*
X040732Y006284D02*
X041515Y006284D01*
X041356Y006125D02*
X040732Y006125D01*
X040732Y005967D02*
X041197Y005967D01*
X041039Y005808D02*
X040732Y005808D01*
X040732Y005650D02*
X040880Y005650D01*
X040845Y005219D02*
X040845Y002857D01*
X041633Y002069D01*
X041731Y002069D01*
X041948Y002286D01*
X042105Y001676D02*
X042558Y002128D01*
X043070Y002162D02*
X043070Y002162D01*
X043070Y002320D02*
X043070Y002320D01*
X043070Y002479D02*
X043070Y002479D01*
X041692Y002857D02*
X041239Y003309D01*
X041239Y004431D01*
X043208Y006400D01*
X044457Y006125D02*
X044779Y006125D01*
X044817Y006284D02*
X044669Y006284D01*
X044827Y006443D02*
X044896Y006443D01*
X045158Y005174D02*
X045194Y005174D01*
X045194Y005016D02*
X045158Y005016D01*
X042262Y003906D02*
X041519Y003906D01*
X041519Y003747D02*
X041651Y003747D01*
X041542Y003589D02*
X041519Y003589D01*
X041239Y001676D02*
X042105Y001676D01*
X042343Y001517D02*
X042343Y001517D01*
X045545Y000576D02*
X018823Y000576D01*
X028702Y006284D02*
X028754Y006284D01*
X031371Y006918D02*
X032210Y006918D01*
X032559Y008028D02*
X032596Y008028D01*
X032596Y008186D02*
X032559Y008186D01*
X033579Y008186D02*
X033597Y008186D01*
X033738Y008345D02*
X033853Y008345D01*
X035334Y007581D02*
X035334Y005613D01*
X035725Y005808D02*
X035841Y005808D01*
X035841Y005650D02*
X035770Y005650D01*
X035755Y005491D02*
X035841Y005491D01*
X035841Y005333D02*
X035671Y005333D01*
X034996Y005333D02*
X034883Y005333D01*
X035711Y004857D02*
X035841Y004857D01*
X035841Y004699D02*
X035770Y004699D01*
X035769Y004540D02*
X035834Y004540D01*
X035841Y005967D02*
X035614Y005967D01*
X035614Y006125D02*
X035841Y006125D01*
X035841Y006284D02*
X035614Y006284D01*
X035614Y006443D02*
X035841Y006443D01*
X035841Y006601D02*
X035614Y006601D01*
X035614Y006760D02*
X035818Y006760D01*
X036397Y006918D02*
X036569Y006918D01*
X036531Y007077D02*
X036293Y007077D01*
X036890Y007077D02*
X036927Y007077D01*
X036927Y006918D02*
X036890Y006918D01*
X037582Y006284D02*
X038124Y006284D01*
X038086Y006125D02*
X037423Y006125D01*
X038843Y006284D02*
X038873Y006284D01*
X039275Y006284D02*
X039305Y006284D01*
X039289Y006918D02*
X039252Y006918D01*
X039252Y007077D02*
X039289Y007077D01*
X039610Y006918D02*
X040084Y006918D01*
X040820Y006918D02*
X041293Y006918D01*
X041256Y007077D02*
X040848Y007077D01*
X040848Y007394D02*
X041256Y007394D01*
X041280Y007552D02*
X041179Y007552D01*
X040905Y007552D02*
X040842Y007552D01*
X041042Y007916D02*
X040452Y007916D01*
X040055Y008028D02*
X039667Y008028D01*
X039667Y008186D02*
X040055Y008186D01*
X041042Y007916D02*
X041633Y007916D01*
X041614Y007077D02*
X041651Y007077D01*
X041651Y006918D02*
X041614Y006918D01*
X038894Y007394D02*
X038486Y007394D01*
X038480Y007552D02*
X038543Y007552D01*
X038817Y007552D02*
X038917Y007552D01*
X036908Y007916D02*
X035727Y007916D01*
X035668Y007916D01*
X035334Y007581D01*
X035054Y005967D02*
X034809Y005967D01*
X034937Y005808D02*
X034943Y005808D01*
X038880Y005491D02*
X039287Y005491D01*
X034377Y002479D02*
X031719Y002479D01*
X031682Y003272D02*
X032597Y003272D01*
X034861Y002286D02*
X034861Y001754D01*
X035992Y002003D02*
X036446Y002003D01*
X036605Y002162D02*
X036223Y002162D01*
X036515Y001676D02*
X036908Y002069D01*
X020767Y007916D02*
X019586Y007916D01*
D15*
X022523Y007246D03*
X020767Y006400D03*
X018798Y005613D03*
X019586Y004431D03*
X024507Y005947D03*
X024900Y007187D03*
X026082Y007975D03*
X027263Y007581D03*
X027853Y008369D03*
X031790Y008369D03*
X038680Y007916D03*
X041042Y007916D03*
X043404Y007916D03*
X039074Y005947D03*
X027066Y004825D03*
M02*
